# Blender v2.69 (sub 0) OBJ File: 'Projectiles.blend'
# www.blender.org
g Shark_Missile_Shark_Missile_Mesh
v 0.137766 0.332598 1.605926
v 0.234202 0.565413 -1.800000
v -0.137766 0.332598 1.605926
v -0.234203 0.565413 -1.800000
v -0.332596 0.137767 1.605927
v -0.565415 0.234201 -1.800000
v -0.332596 -0.137765 1.605927
v -0.565415 -0.234203 -1.800000
v -0.137766 -0.332595 1.605927
v -0.234203 -0.565415 -1.800000
v 0.137766 -0.332595 1.605927
v 0.234202 -0.565416 -1.800000
v 0.332597 -0.137765 1.605927
v 0.565414 -0.234204 -1.800000
v 0.332597 0.137767 1.605926
v 0.565414 0.234201 -1.800000
v 0.137766 0.332597 0.407285
v -0.137766 0.332597 0.407285
v -0.332597 0.137766 0.407285
v -0.332597 -0.137766 0.407286
v -0.137766 -0.332596 0.407285
v 0.137766 -0.332596 0.407285
v 0.332597 -0.137766 0.407285
v 0.332597 0.137766 0.407285
v 0.137766 0.332596 -0.397917
v -0.137766 0.332596 -0.397917
v -0.332597 0.137766 -0.397917
v -0.332597 -0.137766 -0.397917
v -0.137766 -0.332597 -0.397917
v 0.137766 -0.332597 -0.397917
v 0.332597 -0.137766 -0.397917
v 0.332597 0.137766 -0.397917
v 0.089042 0.214967 0.406118
v -0.089042 0.214967 0.406118
v -0.214966 0.089042 0.406118
v -0.214966 -0.089042 0.406118
v -0.089042 -0.214966 0.406119
v 0.089042 -0.214966 0.406119
v 0.214966 -0.089042 0.406118
v 0.214966 0.089042 0.406118
v 0.089042 0.214966 -0.398426
v -0.089042 0.214966 -0.398426
v -0.214967 0.089042 -0.398426
v -0.214967 -0.089042 -0.398425
v -0.089042 -0.214966 -0.398425
v 0.089042 -0.214966 -0.398425
v 0.214966 -0.089042 -0.398426
v 0.214966 0.089042 -0.398426
v 0.137766 0.332596 -1.192170
v -0.137766 0.332596 -1.192170
v -0.332597 0.137765 -1.192170
v -0.332597 -0.137767 -1.192169
v -0.137766 -0.332597 -1.192169
v 0.137766 -0.332597 -1.192169
v 0.332596 -0.137767 -1.192170
v 0.332596 0.137765 -1.192170
v 0.022704 0.054813 2.197180
v -0.022704 0.054813 2.197180
v -0.054812 0.022705 2.197180
v -0.054812 -0.022703 2.197180
v -0.022704 -0.054811 2.197180
v 0.022704 -0.054811 2.197180
v 0.054812 -0.022703 2.197180
v 0.054812 0.022705 2.197180
v 0.246690 0.102183 1.944239
v 0.102183 0.246691 1.944239
v 0.246690 -0.102181 1.944239
v 0.102183 -0.246689 1.944239
v -0.102182 -0.246689 1.944239
v -0.246690 -0.102181 1.944239
v -0.246690 0.102184 1.944239
v -0.102182 0.246691 1.944239
v 0.111432 0.692051 1.038248
v -0.111431 0.692051 1.038248
v 0.044047 0.802572 0.206970
v -0.044047 0.802572 0.206970
v -0.425030 -0.485506 0.994056
v -0.481397 -0.528470 0.208352
v -0.385000 -0.579830 0.208352
v -0.346208 -0.535991 1.069409
v 0.346209 -0.535991 1.069409
v 0.385000 -0.579830 0.208352
v 0.481397 -0.528470 0.208352
v 0.425031 -0.485506 0.994056
vn 0.000000 0.933841 0.357689
vn -0.660325 0.660325 0.357689
vn -0.933841 0.000000 0.357690
vn -0.660325 -0.660325 0.357690
vn -0.000000 -0.933840 0.357690
vn 0.660325 -0.660325 0.357690
vn -0.000000 -0.000001 -1.000000
vn 0.660325 0.660325 0.357689
vn 0.933841 0.000000 0.357689
vn 0.563355 0.563355 0.604370
vn -0.000001 -0.392095 -0.919924
vn -0.707107 0.707107 -0.000000
vn -1.000000 0.000000 0.000000
vn -0.000000 -1.000000 0.000001
vn 0.707107 0.707107 -0.000001
vn 1.000000 -0.000000 -0.000000
vn 0.000001 -0.004325 0.999991
vn 0.007014 -0.007014 -0.999951
vn 0.004325 0.000001 0.999991
vn 0.009919 -0.000001 -0.999951
vn 0.000000 0.004326 0.999991
vn -0.003059 -0.003058 0.999991
vn -0.000001 0.009919 -0.999951
vn -0.009921 -0.000001 -0.999951
vn -0.000000 1.000000 -0.000000
vn -0.707106 0.707107 -0.000000
vn -0.707107 -0.707107 0.000000
vn -0.000000 -1.000000 0.000000
vn 0.707107 -0.707107 0.000000
vn 0.707107 0.707107 -0.000000
vn -0.007014 -0.007015 -0.999951
vn -0.007015 0.007015 -0.999951
vn -0.004326 0.000001 0.999991
vn -0.003058 0.003059 0.999991
vn 0.003058 0.003059 0.999991
vn 0.007014 0.007013 -0.999951
vn 0.003059 -0.003058 0.999991
vn -0.000000 -0.009919 -0.999951
vn 0.000000 1.000000 -0.000001
vn -0.707107 -0.707107 0.000001
vn 0.000000 0.000000 1.000000
vn 0.796704 0.000000 0.604370
vn 0.563355 -0.563354 0.604370
vn 0.000000 -0.796704 0.604370
vn -0.563355 -0.563354 0.604370
vn -0.796704 0.000001 0.604370
vn -0.563355 0.563355 0.604370
vn 0.000000 0.796704 0.604370
vn 0.685357 0.685356 0.246117
vn 0.969240 0.000000 0.246117
vn 0.685356 -0.685356 0.246117
vn -0.000000 -0.969240 0.246116
vn -0.685356 -0.685357 0.246116
vn -0.969240 0.000000 0.246117
vn -0.685356 0.685357 0.246116
vn 0.000000 0.969240 0.246116
vn 0.000000 0.991277 0.131793
vn 0.992522 0.119160 -0.026460
vn -0.992522 0.119161 -0.026459
vn 0.000000 0.844870 0.534971
vn -0.525027 -0.847772 0.075025
vn -0.956907 0.289641 0.020911
vn 0.304804 0.360564 -0.881526
vn 0.701561 -0.712607 0.001954
vn -0.659866 -0.595237 0.458552
vn 0.525027 -0.847772 0.075025
vn -0.701560 -0.712607 0.001955
vn -0.304805 0.360564 -0.881526
vn 0.956907 0.289641 0.020910
vn 0.659866 -0.595237 0.458552
s off
f 49//1 2//1 4//1 50//1
f 50//2 4//2 6//2 51//2
f 51//3 6//3 8//3 52//3
f 52//4 8//4 10//4 53//4
f 53//5 10//5 12//5 54//5
f 54//6 12//6 14//6 55//6
f 4//7 2//7 16//7 14//7 12//7 10//7 8//7 6//7
f 56//8 16//8 2//8 49//8
f 55//9 14//9 16//9 56//9
f 65//10 66//10 57//10 64//10
f 17//11 18//11 76//11 75//11
f 3//12 18//12 19//12 5//12
f 5//13 19//13 20//13 7//13
f 9//14 21//14 22//14 11//14
f 15//15 24//15 17//15 1//15
f 13//16 23//16 24//16 15//16
f 25//17 26//17 42//17 41//17
f 23//18 22//18 38//18 39//18
f 27//19 28//19 44//19 43//19
f 24//20 23//20 39//20 40//20
f 29//21 30//21 46//21 45//21
f 32//22 25//22 41//22 48//22
f 18//23 17//23 33//23 34//23
f 20//24 19//24 35//24 36//24
f 33//25 41//25 42//25 34//25
f 34//26 42//26 43//26 35//26
f 35//13 43//13 44//13 36//13
f 36//27 44//27 45//27 37//27
f 37//28 45//28 46//28 38//28
f 38//29 46//29 47//29 39//29
f 40//30 48//30 41//30 33//30
f 39//16 47//16 48//16 40//16
f 21//31 20//31 36//31 37//31
f 19//32 18//32 34//32 35//32
f 31//33 32//33 48//33 47//33
f 30//34 31//34 47//34 46//34
f 28//35 29//35 45//35 44//35
f 17//36 24//36 40//36 33//36
f 26//37 27//37 43//37 42//37
f 22//38 21//38 37//38 38//38
f 25//39 49//39 50//39 26//39
f 26//12 50//12 51//12 27//12
f 27//13 51//13 52//13 28//13
f 28//40 52//40 53//40 29//40
f 29//14 53//14 54//14 30//14
f 30//29 54//29 55//29 31//29
f 32//15 56//15 49//15 25//15
f 31//16 55//16 56//16 32//16
f 57//41 58//41 59//41 60//41 61//41 62//41 63//41 64//41
f 67//42 65//42 64//42 63//42
f 68//43 67//43 63//43 62//43
f 69//44 68//44 62//44 61//44
f 70//45 69//45 61//45 60//45
f 71//46 70//46 60//46 59//46
f 72//47 71//47 59//47 58//47
f 66//48 72//48 58//48 57//48
f 15//49 1//49 66//49 65//49
f 13//50 15//50 65//50 67//50
f 11//51 13//51 67//51 68//51
f 9//52 11//52 68//52 69//52
f 7//53 9//53 69//53 70//53
f 5//54 7//54 70//54 71//54
f 3//55 5//55 71//55 72//55
f 1//56 3//56 72//56 66//56
f 73//57 75//57 76//57 74//57
f 1//58 17//58 75//58 73//58
f 18//59 3//59 74//59 76//59
f 3//60 1//60 73//60 74//60
f 77//61 78//61 79//61 80//61
f 20//62 78//62 77//62 7//62
f 21//63 79//63 78//63 20//63
f 9//64 80//64 79//64 21//64
f 7//65 77//65 80//65 9//65
f 81//66 82//66 83//66 84//66
f 22//67 82//67 81//67 11//67
f 23//68 83//68 82//68 22//68
f 13//69 84//69 83//69 23//69
f 11//70 81//70 84//70 13//70
