# Blender v2.69 (sub 0) OBJ File: 'Projectiles.blend'
# www.blender.org
mtllib Tech_Missile_Model.mtl
g Tech_Missile_Tech_Missile_Mesh
v 0.000000 0.064752 1.639271
v 0.000000 0.359999 -1.360730
v -0.045786 0.045787 1.639271
v -0.254558 0.254557 -1.360729
v -0.064751 0.000001 1.639271
v -0.360000 -0.000001 -1.360729
v -0.045786 -0.045784 1.639271
v -0.254558 -0.254560 -1.360729
v 0.000000 -0.064750 1.639271
v 0.000000 -0.360001 -1.360729
v 0.045786 -0.045784 1.639271
v 0.254559 -0.254560 -1.360729
v 0.064751 0.000001 1.639271
v 0.360000 -0.000001 -1.360729
v 0.045786 0.045787 1.639271
v 0.254559 0.254557 -1.360729
v 0.000000 0.351035 -0.759451
v -0.248220 0.248219 -0.759451
v -0.351036 -0.000001 -0.759451
v -0.248220 -0.248221 -0.759451
v 0.000000 -0.351037 -0.759451
v 0.248220 -0.248221 -0.759451
v 0.351036 -0.000001 -0.759451
v 0.248220 0.248219 -0.759451
v -0.192894 0.192895 1.335106
v -0.272793 0.000001 1.335106
v -0.192894 -0.192893 1.335107
v 0.000000 -0.272792 1.335107
v 0.192894 -0.192893 1.335107
v 0.272793 0.000001 1.335106
v 0.192894 0.192895 1.335106
v 0.000000 0.272794 1.335106
v -0.252365 0.252365 0.843416
v -0.356897 0.000000 0.843417
v -0.252364 -0.252364 0.843417
v 0.000000 -0.356897 0.843417
v 0.252365 -0.252364 0.843417
v 0.356897 0.000000 0.843417
v 0.252365 0.252365 0.843416
v 0.000000 0.356898 0.843416
v 0.000000 0.250063 -0.959877
v -0.176822 0.176821 -0.959877
v -0.250064 -0.000001 -0.959877
v -0.176822 -0.176823 -0.959877
v 0.000000 -0.250065 -0.959877
v 0.176822 -0.176823 -0.959877
v 0.250064 -0.000001 -0.959877
v 0.176822 0.176821 -0.959877
vt 0.298644 0.862355
vt 0.251135 0.793536
vt 0.277573 0.806727
vt 0.355326 0.815233
vt 0.309899 0.815401
vt 0.358271 0.746135
vt 0.289114 0.787419
vt 0.298509 0.700939
vt 0.268035 0.767547
vt 0.220526 0.698729
vt 0.241596 0.754356
vt 0.163844 0.745850
vt 0.209270 0.745682
vt 0.160898 0.814948
vt 0.230055 0.773664
vt 0.220661 0.860144
vt 0.778449 0.233232
vt 0.775412 0.233965
vt 0.772657 0.232357
vt 0.771792 0.229272
vt 0.773341 0.226487
vt 0.776408 0.225659
vt 0.779149 0.227359
vt 0.780076 0.230446
vt 0.027816 0.365989
vt 0.344130 0.204708
vt 0.280212 0.170414
vt 0.170215 0.507380
vt 0.210723 0.193775
vt 0.371319 0.509597
vt 0.177110 0.259944
vt 0.515346 0.369444
vt 0.198462 0.331104
vt 0.515761 0.168454
vt 0.262869 0.366419
vt 0.372200 0.027486
vt 0.331827 0.343932
vt 0.170871 0.028681
vt 0.027816 0.169429
vt 0.359737 0.276430
vt 0.789366 0.255513
vt 0.767492 0.258560
vt 0.749405 0.244543
vt 0.746641 0.221476
vt 0.761150 0.203141
vt 0.784501 0.200422
vt 0.803175 0.215042
vt 0.806359 0.239386
vt 0.849164 0.394320
vt 0.708520 0.394320
vt 0.613354 0.295599
vt 0.617053 0.161450
vt 0.712848 0.071324
vt 0.841672 0.074883
vt 0.929192 0.165622
vt 0.929330 0.288469
vt 0.336888 0.957307
vt 0.446630 0.853337
vt 0.447146 0.704434
vt 0.335756 0.603776
vt 0.182281 0.603776
vt 0.072539 0.707746
vt 0.072024 0.856650
vt 0.183414 0.957307
vn -0.370961 0.895578 0.245617
vn -0.895578 0.370961 0.245617
vn -0.895578 -0.370961 0.245618
vn -0.370961 -0.895578 0.245618
vn 0.370961 -0.895578 0.245618
vn 0.895578 -0.370961 0.245618
vn 0.000000 -0.000001 -1.000000
vn 0.370961 0.895578 0.245617
vn 0.895578 0.370961 0.245617
vn 0.000001 0.000000 1.000000
vn -0.382681 0.923874 -0.003379
vn -0.923874 0.382681 -0.003379
vn -0.923874 -0.382681 -0.003378
vn -0.382681 -0.923874 -0.003378
vn 0.382681 -0.923874 -0.003378
vn 0.923874 -0.382681 -0.003378
vn 0.382681 0.923874 -0.003379
vn 0.923874 0.382681 -0.003379
vn -0.323507 0.781012 0.534194
vn -0.781011 0.323506 0.534196
vn -0.781011 -0.323505 0.534196
vn -0.323505 -0.781011 0.534196
vn 0.323505 -0.781011 0.534196
vn 0.781011 -0.323505 0.534196
vn 0.323507 0.781012 0.534194
vn 0.781011 0.323506 0.534196
vn -0.377992 0.912555 0.156093
vn -0.912555 0.377992 0.156094
vn -0.912555 -0.377992 0.156094
vn -0.377993 -0.912555 0.156095
vn 0.377993 -0.912555 0.156095
vn 0.912555 -0.377993 0.156095
vn 0.377992 0.912555 0.156093
vn 0.912555 0.377993 0.156094
vn -0.346944 0.837598 -0.421971
vn -0.837598 0.346944 -0.421971
vn -0.837598 -0.346945 -0.421970
vn -0.346945 -0.837598 -0.421970
vn 0.346945 -0.837598 -0.421970
vn 0.837598 -0.346945 -0.421970
vn 0.346944 0.837598 -0.421971
vn 0.837598 0.346944 -0.421971
usemtl Tech_Missile_Material
s off
f 41/1/1 2/2/1 4/3/1 42/4/1
f 42/4/2 4/3/2 6/5/2 43/6/2
f 43/6/3 6/5/3 8/7/3 44/8/3
f 44/8/4 8/7/4 10/9/4 45/10/4
f 45/10/5 10/9/5 12/11/5 46/12/5
f 46/12/6 12/11/6 14/13/6 47/14/6
f 4/3/7 2/2/7 16/15/7 14/13/7 12/11/7 10/9/7 8/7/7 6/5/7
f 48/16/8 16/15/8 2/2/8 41/1/8
f 47/14/9 14/13/9 16/15/9 48/16/9
f 1/17/10 3/18/10 5/19/10 7/20/10 9/21/10 11/22/10 13/23/10 15/24/10
f 40/25/11 17/26/11 18/27/11 33/28/11
f 33/28/12 18/27/12 19/29/12 34/30/12
f 34/30/13 19/29/13 20/31/13 35/32/13
f 35/32/14 20/31/14 21/33/14 36/34/14
f 36/34/15 21/33/15 22/35/15 37/36/15
f 37/36/16 22/35/16 23/37/16 38/38/16
f 39/39/17 24/40/17 17/26/17 40/25/17
f 38/38/18 23/37/18 24/40/18 39/39/18
f 1/17/19 32/41/19 25/42/19 3/18/19
f 3/18/20 25/42/20 26/43/20 5/19/20
f 5/19/21 26/43/21 27/44/21 7/20/21
f 7/20/22 27/44/22 28/45/22 9/21/22
f 9/21/23 28/45/23 29/46/23 11/22/23
f 11/22/24 29/46/24 30/47/24 13/23/24
f 15/24/25 31/48/25 32/41/25 1/17/25
f 13/23/26 30/47/26 31/48/26 15/24/26
f 32/41/27 40/49/27 33/50/27 25/42/27
f 25/42/28 33/50/28 34/51/28 26/43/28
f 26/43/29 34/51/29 35/52/29 27/44/29
f 27/44/30 35/52/30 36/53/30 28/45/30
f 28/45/31 36/53/31 37/54/31 29/46/31
f 29/46/32 37/54/32 38/55/32 30/47/32
f 31/48/33 39/56/33 40/49/33 32/41/33
f 30/47/34 38/55/34 39/56/34 31/48/34
f 17/57/35 41/1/35 42/4/35 18/58/35
f 18/58/36 42/4/36 43/6/36 19/59/36
f 19/59/37 43/6/37 44/8/37 20/60/37
f 20/60/38 44/8/38 45/10/38 21/61/38
f 21/61/39 45/10/39 46/12/39 22/62/39
f 22/62/40 46/12/40 47/14/40 23/63/40
f 24/64/41 48/16/41 41/1/41 17/57/41
f 23/63/42 47/14/42 48/16/42 24/64/42
