# Blender v2.69 (sub 0) OBJ File: 'Projectiles.blend'
# www.blender.org
g Tech_Missile_Tech_Missile_Mesh
v 0.000000 0.064752 1.639271
v 0.000000 0.359999 -1.360730
v -0.045786 0.045787 1.639271
v -0.254558 0.254557 -1.360729
v -0.064751 0.000001 1.639271
v -0.360000 -0.000001 -1.360729
v -0.045786 -0.045784 1.639271
v -0.254558 -0.254560 -1.360729
v 0.000000 -0.064750 1.639271
v 0.000000 -0.360001 -1.360729
v 0.045786 -0.045784 1.639271
v 0.254559 -0.254560 -1.360729
v 0.064751 0.000001 1.639271
v 0.360000 -0.000001 -1.360729
v 0.045786 0.045787 1.639271
v 0.254559 0.254557 -1.360729
v 0.000000 0.351035 -0.759451
v -0.248220 0.248219 -0.759451
v -0.351036 -0.000001 -0.759451
v -0.248220 -0.248221 -0.759451
v 0.000000 -0.351037 -0.759451
v 0.248220 -0.248221 -0.759451
v 0.351036 -0.000001 -0.759451
v 0.248220 0.248219 -0.759451
v -0.192894 0.192895 1.335106
v -0.272793 0.000001 1.335106
v -0.192894 -0.192893 1.335107
v 0.000000 -0.272792 1.335107
v 0.192894 -0.192893 1.335107
v 0.272793 0.000001 1.335106
v 0.192894 0.192895 1.335106
v 0.000000 0.272794 1.335106
v -0.252365 0.252365 0.843416
v -0.356897 0.000000 0.843417
v -0.252364 -0.252364 0.843417
v 0.000000 -0.356897 0.843417
v 0.252365 -0.252364 0.843417
v 0.356897 0.000000 0.843417
v 0.252365 0.252365 0.843416
v 0.000000 0.356898 0.843416
v 0.000000 0.250063 -0.959877
v -0.176822 0.176821 -0.959877
v -0.250064 -0.000001 -0.959877
v -0.176822 -0.176823 -0.959877
v 0.000000 -0.250065 -0.959877
v 0.176822 -0.176823 -0.959877
v 0.250064 -0.000001 -0.959877
v 0.176822 0.176821 -0.959877
vn -0.370961 0.895578 0.245617
vn -0.895578 0.370961 0.245617
vn -0.895578 -0.370961 0.245618
vn -0.370961 -0.895578 0.245618
vn 0.370961 -0.895578 0.245618
vn 0.895578 -0.370961 0.245618
vn 0.000000 -0.000001 -1.000000
vn 0.370961 0.895578 0.245617
vn 0.895578 0.370961 0.245617
vn 0.000001 0.000000 1.000000
vn -0.382681 0.923874 -0.003379
vn -0.923874 0.382681 -0.003379
vn -0.923874 -0.382681 -0.003378
vn -0.382681 -0.923874 -0.003378
vn 0.382681 -0.923874 -0.003378
vn 0.923874 -0.382681 -0.003378
vn 0.382681 0.923874 -0.003379
vn 0.923874 0.382681 -0.003379
vn -0.323507 0.781012 0.534194
vn -0.781011 0.323506 0.534196
vn -0.781011 -0.323505 0.534196
vn -0.323505 -0.781011 0.534196
vn 0.323505 -0.781011 0.534196
vn 0.781011 -0.323505 0.534196
vn 0.323507 0.781012 0.534194
vn 0.781011 0.323506 0.534196
vn -0.377992 0.912555 0.156093
vn -0.912555 0.377992 0.156094
vn -0.912555 -0.377992 0.156094
vn -0.377993 -0.912555 0.156095
vn 0.377993 -0.912555 0.156095
vn 0.912555 -0.377993 0.156095
vn 0.377992 0.912555 0.156093
vn 0.912555 0.377993 0.156094
vn -0.346944 0.837598 -0.421971
vn -0.837598 0.346944 -0.421971
vn -0.837598 -0.346945 -0.421970
vn -0.346945 -0.837598 -0.421970
vn 0.346945 -0.837598 -0.421970
vn 0.837598 -0.346945 -0.421970
vn 0.346944 0.837598 -0.421971
vn 0.837598 0.346944 -0.421971
s off
f 41//1 2//1 4//1 42//1
f 42//2 4//2 6//2 43//2
f 43//3 6//3 8//3 44//3
f 44//4 8//4 10//4 45//4
f 45//5 10//5 12//5 46//5
f 46//6 12//6 14//6 47//6
f 4//7 2//7 16//7 14//7 12//7 10//7 8//7 6//7
f 48//8 16//8 2//8 41//8
f 47//9 14//9 16//9 48//9
f 1//10 3//10 5//10 7//10 9//10 11//10 13//10 15//10
f 40//11 17//11 18//11 33//11
f 33//12 18//12 19//12 34//12
f 34//13 19//13 20//13 35//13
f 35//14 20//14 21//14 36//14
f 36//15 21//15 22//15 37//15
f 37//16 22//16 23//16 38//16
f 39//17 24//17 17//17 40//17
f 38//18 23//18 24//18 39//18
f 1//19 32//19 25//19 3//19
f 3//20 25//20 26//20 5//20
f 5//21 26//21 27//21 7//21
f 7//22 27//22 28//22 9//22
f 9//23 28//23 29//23 11//23
f 11//24 29//24 30//24 13//24
f 15//25 31//25 32//25 1//25
f 13//26 30//26 31//26 15//26
f 32//27 40//27 33//27 25//27
f 25//28 33//28 34//28 26//28
f 26//29 34//29 35//29 27//29
f 27//30 35//30 36//30 28//30
f 28//31 36//31 37//31 29//31
f 29//32 37//32 38//32 30//32
f 31//33 39//33 40//33 32//33
f 30//34 38//34 39//34 31//34
f 17//35 41//35 42//35 18//35
f 18//36 42//36 43//36 19//36
f 19//37 43//37 44//37 20//37
f 20//38 44//38 45//38 21//38
f 21//39 45//39 46//39 22//39
f 22//40 46//40 47//40 23//40
f 24//41 48//41 41//41 17//41
f 23//42 47//42 48//42 24//42
