# Blender v2.69 (sub 0) OBJ File: 'Projectiles.blend'
# www.blender.org
mtllib C-Bomb_Nuke_Model.mtl
g C-Bomb_Nuke_C-Bomb_Nuke_Mesh
v 0.005744 -0.091243 2.847003
v 0.005744 0.621371 -2.152998
v -0.086609 -0.129497 2.847003
v -0.590505 0.374397 -2.152997
v -0.124862 -0.221849 2.847004
v -0.837480 -0.221852 -2.152997
v -0.086609 -0.314201 2.847004
v -0.590505 -0.818101 -2.152997
v 0.005744 -0.352455 2.847004
v 0.005744 -1.065076 -2.152997
v 0.098096 -0.314201 2.847004
v 0.601992 -0.818101 -2.152997
v 0.136349 -0.221849 2.847004
v 0.848967 -0.221852 -2.152997
v 0.098096 -0.129497 2.847003
v 0.601992 0.374396 -2.152997
v 0.005744 0.438920 1.850481
v -0.461491 0.245385 1.850481
v -0.655026 -0.221850 1.850481
v -0.461491 -0.689084 1.850482
v 0.005744 -0.882619 1.850482
v 0.472978 -0.689084 1.850482
v 0.666513 -0.221850 1.850481
v 0.472978 0.245385 1.850481
v 0.005744 0.478025 1.094668
v -0.489143 0.273036 1.094668
v -0.694132 -0.221850 1.094668
v -0.489143 -0.716737 1.094669
v 0.005744 -0.921726 1.094669
v 0.500630 -0.716737 1.094669
v 0.705619 -0.221850 1.094668
v 0.500630 0.273036 1.094668
v 0.005744 0.324609 -1.547533
v -0.380663 0.164554 -1.547533
v -0.540718 -0.221852 -1.547533
v -0.380663 -0.608258 -1.547533
v 0.005744 -0.768313 -1.547533
v 0.392150 -0.608258 -1.547533
v 0.552205 -0.221852 -1.547533
v 0.392150 0.164554 -1.547533
v 0.005744 0.897950 -0.226433
v -0.786075 0.569968 -0.226433
v -1.114057 -0.221851 -0.226432
v -0.786075 -1.013670 -0.226432
v 0.005744 -1.341652 -0.226432
v 0.797562 -1.013670 -0.226432
v 1.125544 -0.221851 -0.226432
v 0.797562 0.569967 -0.226433
v 0.005744 0.214339 1.853432
v -0.302689 0.086582 1.853432
v -0.430445 -0.221850 1.853433
v -0.302689 -0.530282 1.853433
v 0.005744 -0.658039 1.853433
v 0.314176 -0.530282 1.853433
v 0.441932 -0.221850 1.853433
v 0.314176 0.086582 1.853432
v 0.005744 0.266594 1.091364
v -0.339639 0.123532 1.091364
v -0.482701 -0.221850 1.091364
v -0.339639 -0.567233 1.091364
v 0.005744 -0.710295 1.091364
v 0.351126 -0.567233 1.091364
v 0.494188 -0.221850 1.091364
v 0.351126 0.123532 1.091364
v -0.394980 0.178874 2.352687
v -0.560965 -0.221849 2.352687
v -0.394980 -0.622573 2.352688
v 0.005744 -0.788558 2.352688
v 0.406467 -0.622573 2.352688
v 0.572452 -0.221849 2.352687
v 0.406467 0.178874 2.352687
v 0.005744 0.344859 2.352687
v -0.300110 0.084004 2.599845
v -0.426799 -0.221849 2.599845
v -0.300110 -0.527703 2.599845
v 0.005744 -0.654392 2.599845
v 0.311597 -0.527703 2.599845
v 0.438286 -0.221849 2.599845
v 0.311597 0.084004 2.599845
v 0.005744 0.210693 2.599845
vt 0.313301 0.939675
vt 0.283060 0.813030
vt 0.310247 0.779484
vt 0.437860 0.843964
vt 0.312361 0.719662
vt 0.434731 0.655482
vt 0.283515 0.690371
vt 0.327494 0.560353
vt 0.219056 0.690808
vt 0.170214 0.559417
vt 0.185963 0.721072
vt 0.064293 0.656321
vt 0.188128 0.778410
vt 0.064184 0.843186
vt 0.219353 0.812964
vt 0.190638 0.939675
vt 0.775428 0.226430
vt 0.776612 0.232084
vt 0.773442 0.236954
vt 0.767809 0.238236
vt 0.762969 0.235154
vt 0.761815 0.229507
vt 0.764992 0.224630
vt 0.770599 0.223320
vt 0.818181 0.204215
vt 0.891087 0.176666
vt 0.893659 0.278694
vt 0.822624 0.246614
vt 0.823328 0.352659
vt 0.795785 0.279743
vt 0.721289 0.355227
vt 0.753364 0.284196
vt 0.647333 0.284898
vt 0.720235 0.257348
vt 0.644765 0.182889
vt 0.715797 0.214966
vt 0.715079 0.108929
vt 0.742625 0.181843
vt 0.785048 0.177378
vt 0.817116 0.106343
vt 0.680935 0.017718
vt 0.857465 0.017697
vt 0.045618 0.161282
vt 0.187144 0.030752
vt 0.214440 0.103101
vt 0.116077 0.193138
vt 0.510044 0.180053
vt 0.502269 0.372425
vt 0.431809 0.340568
vt 0.437696 0.207349
vt 0.982303 0.142518
vt 0.982303 0.319055
vt 0.857466 0.443880
vt 0.680931 0.443862
vt 0.556130 0.319032
vt 0.556137 0.142536
vt 0.360743 0.502955
vt 0.168371 0.495179
vt 0.200227 0.424720
vt 0.333447 0.430607
vt 0.121266 0.323913
vt 0.014900 0.374558
vt 0.014900 0.163875
vt 0.125924 0.203275
vt 0.163876 0.014900
vt 0.214521 0.121265
vt 0.374558 0.014900
vt 0.335159 0.125923
vt 0.523534 0.163875
vt 0.417169 0.214521
vt 0.523534 0.374558
vt 0.412510 0.335158
vt 0.374559 0.523532
vt 0.323913 0.417168
vt 0.203276 0.412510
vt 0.163876 0.523533
vt 0.233938 0.283664
vt 0.234055 0.254487
vt 0.254769 0.233938
vt 0.283947 0.234055
vt 0.304495 0.254769
vt 0.304379 0.283946
vt 0.283665 0.304495
vt 0.254487 0.304378
vt 0.755828 0.728194
vt 0.826232 0.565960
vt 0.936110 0.674687
vt 0.771992 0.738454
vt 0.935558 0.829163
vt 0.774774 0.757027
vt 0.825984 0.937261
vt 0.762874 0.772346
vt 0.672558 0.937261
vt 0.742961 0.775027
vt 0.562679 0.828534
vt 0.726798 0.764767
vt 0.563231 0.674058
vt 0.724016 0.746194
vt 0.735915 0.730875
vt 0.672805 0.565960
vt 0.037842 0.353654
vt 0.110191 0.326357
vt 0.379515 0.038527
vt 0.347659 0.108987
vt 0.795922 0.214976
vt 0.799272 0.238480
vt 0.785024 0.257474
vt 0.761495 0.260842
vt 0.742491 0.246584
vt 0.739146 0.223099
vt 0.753388 0.204112
vt 0.776925 0.200733
vn -0.348607 0.841612 0.412507
vn -0.841612 0.348607 0.412507
vn -0.841612 -0.348607 0.412508
vn -0.348607 -0.841612 0.412508
vn 0.348607 -0.841612 0.412508
vn 0.841612 -0.348607 0.412508
vn 0.000000 -0.000001 -1.000000
vn 0.348607 0.841612 0.412507
vn 0.841612 0.348607 0.412507
vn -0.000001 0.000001 1.000000
vn -0.377080 0.910351 0.170505
vn -0.910351 0.377080 0.170505
vn -0.910351 -0.377080 0.170505
vn -0.377080 -0.910351 0.170505
vn 0.377080 -0.910351 0.170505
vn 0.910351 -0.377079 0.170505
vn 0.377080 0.910351 0.170505
vn 0.910351 0.377080 0.170505
vn -0.013139 -0.005443 -0.999899
vn -0.006473 0.015628 0.999857
vn -0.006473 -0.015626 0.999857
vn 0.005442 -0.013140 -0.999899
vn 0.013140 0.005442 -0.999899
vn -0.005442 0.013139 -0.999899
vn 0.015627 -0.006472 0.999857
vn -0.005442 -0.013140 -0.999899
vn -0.355196 0.857519 -0.372152
vn -0.857519 0.355196 -0.372152
vn -0.857519 -0.355196 -0.372151
vn -0.355196 -0.857519 -0.372151
vn 0.355196 -0.857519 -0.372151
vn 0.857519 -0.355196 -0.372151
vn 0.355196 0.857519 -0.372152
vn 0.857519 0.355196 -0.372152
vn -0.367178 0.886447 0.281766
vn -0.886447 0.367178 0.281766
vn -0.886447 -0.367178 0.281766
vn -0.367178 -0.886447 0.281767
vn 0.367178 -0.886447 0.281767
vn 0.886447 -0.367178 0.281766
vn 0.367178 0.886447 0.281766
vn 0.886447 0.367178 0.281766
vn -0.381918 0.922031 0.063224
vn -0.922031 0.381918 0.063224
vn -0.922031 -0.381918 0.063225
vn -0.381918 -0.922031 0.063225
vn 0.381918 -0.922031 0.063225
vn 0.922031 -0.381918 0.063225
vn 0.381918 0.922031 0.063224
vn 0.922031 0.381918 0.063224
vn 0.015627 0.006474 0.999857
vn -0.013140 0.005442 -0.999899
vn 0.006473 -0.015626 0.999857
vn 0.005442 0.013139 -0.999899
vn 0.013139 -0.005443 -0.999899
vn -0.015627 -0.006472 0.999857
vn -0.015626 0.006474 0.999857
vn 0.006473 0.015628 0.999857
vn -0.342075 0.825842 0.448296
vn -0.825842 0.342075 0.448296
vn -0.825842 -0.342075 0.448296
vn -0.342075 -0.825842 0.448297
vn 0.342075 -0.825842 0.448297
vn 0.825842 -0.342074 0.448296
vn 0.342075 0.825842 0.448296
vn 0.825842 0.342075 0.448296
vn -0.253780 0.612685 0.748474
vn -0.612685 0.253782 0.748473
vn -0.612683 -0.253782 0.748474
vn -0.253782 -0.612684 0.748474
vn 0.253782 -0.612684 0.748474
vn 0.612684 -0.253782 0.748474
vn 0.253780 0.612685 0.748474
vn 0.612684 0.253783 0.748473
usemtl C-Bomb_Nuke_Material
s off
f 33/1/1 2/2/1 4/3/1 34/4/1
f 34/4/2 4/3/2 6/5/2 35/6/2
f 35/6/3 6/5/3 8/7/3 36/8/3
f 36/8/4 8/7/4 10/9/4 37/10/4
f 37/10/5 10/9/5 12/11/5 38/12/5
f 38/12/6 12/11/6 14/13/6 39/14/6
f 4/3/7 2/2/7 16/15/7 14/13/7 12/11/7 10/9/7 8/7/7 6/5/7
f 40/16/8 16/15/8 2/2/8 33/1/8
f 39/14/9 14/13/9 16/15/9 40/16/9
f 1/17/10 3/18/10 5/19/10 7/20/10 9/21/10 11/22/10 13/23/10 15/24/10
f 72/25/11 17/26/11 18/27/11 65/28/11
f 65/28/12 18/27/12 19/29/12 66/30/12
f 66/30/13 19/29/13 20/31/13 67/32/13
f 67/32/14 20/31/14 21/33/14 68/34/14
f 68/34/15 21/33/15 22/35/15 69/36/15
f 69/36/16 22/35/16 23/37/16 70/38/16
f 71/39/17 24/40/17 17/26/17 72/25/17
f 70/38/18 23/37/18 24/40/18 71/39/18
f 24/40/19 23/37/19 55/41/19 56/42/19
f 29/43/20 30/44/20 62/45/20 61/46/20
f 32/47/21 25/48/21 57/49/21 64/50/21
f 18/27/22 17/26/22 49/51/22 50/52/22
f 20/31/23 19/29/23 51/53/23 52/54/23
f 22/35/24 21/33/24 53/55/24 54/56/24
f 26/57/25 27/58/25 59/59/25 58/60/25
f 17/26/26 24/40/26 56/42/26 49/51/26
f 41/61/27 33/62/27 34/63/27 42/64/27
f 42/64/28 34/63/28 35/65/28 43/66/28
f 43/66/29 35/65/29 36/67/29 44/68/29
f 44/68/30 36/67/30 37/69/30 45/70/30
f 45/70/31 37/69/31 38/71/31 46/72/31
f 46/72/32 38/71/32 39/73/32 47/74/32
f 48/75/33 40/76/33 33/62/33 41/61/33
f 47/74/34 39/73/34 40/76/34 48/75/34
f 25/77/35 41/61/35 42/64/35 26/78/35
f 26/78/36 42/64/36 43/66/36 27/79/36
f 27/79/37 43/66/37 44/68/37 28/80/37
f 28/80/38 44/68/38 45/70/38 29/81/38
f 29/81/39 45/70/39 46/72/39 30/82/39
f 30/82/40 46/72/40 47/74/40 31/83/40
f 32/84/41 48/75/41 41/61/41 25/77/41
f 31/83/42 47/74/42 48/75/42 32/84/42
f 49/85/43 57/86/43 58/87/43 50/88/43
f 50/88/44 58/87/44 59/89/44 51/90/44
f 51/90/45 59/89/45 60/91/45 52/92/45
f 52/92/46 60/91/46 61/93/46 53/94/46
f 53/94/47 61/93/47 62/95/47 54/96/47
f 54/96/48 62/95/48 63/97/48 55/98/48
f 56/99/49 64/100/49 57/86/49 49/85/49
f 55/98/50 63/97/50 64/100/50 56/99/50
f 27/58/51 28/101/51 60/102/51 59/59/51
f 23/37/52 22/35/52 54/56/52 55/41/52
f 25/48/53 26/57/53 58/60/53 57/49/53
f 21/33/54 20/31/54 52/54/54 53/55/54
f 19/29/55 18/27/55 50/52/55 51/53/55
f 31/103/56 32/47/56 64/50/56 63/104/56
f 30/44/57 31/103/57 63/104/57 62/45/57
f 28/101/58 29/43/58 61/46/58 60/102/58
f 80/105/59 72/25/59 65/28/59 73/106/59
f 73/106/60 65/28/60 66/30/60 74/107/60
f 74/107/61 66/30/61 67/32/61 75/108/61
f 75/108/62 67/32/62 68/34/62 76/109/62
f 76/109/63 68/34/63 69/36/63 77/110/63
f 77/110/64 69/36/64 70/38/64 78/111/64
f 79/112/65 71/39/65 72/25/65 80/105/65
f 78/111/66 70/38/66 71/39/66 79/112/66
f 1/17/67 80/105/67 73/106/67 3/18/67
f 3/18/68 73/106/68 74/107/68 5/19/68
f 5/19/69 74/107/69 75/108/69 7/20/69
f 7/20/70 75/108/70 76/109/70 9/21/70
f 9/21/71 76/109/71 77/110/71 11/22/71
f 11/22/72 77/110/72 78/111/72 13/23/72
f 15/24/73 79/112/73 80/105/73 1/17/73
f 13/23/74 78/111/74 79/112/74 15/24/74
