# Blender v2.69 (sub 0) OBJ File: 'Projectiles.blend'
# www.blender.org
mtllib BlackHole_Model.mtl
g BlackHole_BlackHole_Mesh
v 0.000000 -0.028646 1.000000
v 0.000000 0.028646 1.000000
v -0.195090 -0.028646 0.980785
v -0.195090 0.028646 0.980785
v -0.382683 -0.028646 0.923880
v -0.382683 0.028646 0.923880
v -0.555570 -0.028646 0.831470
v -0.555570 0.028646 0.831470
v -0.707107 -0.028646 0.707107
v -0.707107 0.028646 0.707107
v -0.831470 -0.028646 0.555570
v -0.831470 0.028646 0.555570
v -0.923880 -0.028646 0.382683
v -0.923880 0.028646 0.382683
v -0.980785 -0.028646 0.195090
v -0.980785 0.028646 0.195090
v -1.000000 -0.028646 0.000000
v -1.000000 0.028646 0.000000
v -0.980785 -0.028646 -0.195090
v -0.980785 0.028646 -0.195090
v -0.923880 -0.028646 -0.382683
v -0.923880 0.028646 -0.382683
v -0.831470 -0.028646 -0.555570
v -0.831470 0.028646 -0.555570
v -0.707107 -0.028646 -0.707107
v -0.707107 0.028646 -0.707107
v -0.555570 -0.028646 -0.831470
v -0.555570 0.028646 -0.831470
v -0.382683 -0.028646 -0.923880
v -0.382683 0.028646 -0.923880
v -0.195090 -0.028646 -0.980785
v -0.195090 0.028646 -0.980785
v 0.000000 -0.028646 -1.000000
v 0.000000 0.028646 -1.000000
v 0.195091 -0.028646 -0.980785
v 0.195091 0.028646 -0.980785
v 0.382684 -0.028646 -0.923879
v 0.382684 0.028646 -0.923879
v 0.555571 -0.028646 -0.831469
v 0.555571 0.028646 -0.831469
v 0.707107 -0.028646 -0.707106
v 0.707107 0.028646 -0.707106
v 0.831470 -0.028646 -0.555570
v 0.831470 0.028646 -0.555570
v 0.923880 -0.028646 -0.382683
v 0.923880 0.028646 -0.382683
v 0.980785 -0.028646 -0.195089
v 0.980785 0.028646 -0.195089
v 1.000000 -0.028646 0.000001
v 1.000000 0.028646 0.000001
v 0.980785 -0.028646 0.195091
v 0.980785 0.028646 0.195091
v 0.923879 -0.028646 0.382684
v 0.923879 0.028646 0.382684
v 0.831469 -0.028646 0.555571
v 0.831469 0.028646 0.555571
v 0.707106 -0.028646 0.707108
v 0.707106 0.028646 0.707108
v 0.555569 -0.028646 0.831470
v 0.555569 0.028646 0.831470
v 0.382682 -0.028646 0.923880
v 0.382682 0.028646 0.923880
v 0.195089 -0.028646 0.980786
v 0.195089 0.028646 0.980786
vt 0.899283 0.831434
vt 0.900666 0.850620
vt 0.890815 0.852777
vt 0.885668 0.834154
vt 0.881577 0.856805
vt 0.872844 0.839477
vt 0.873300 0.862546
vt 0.861303 0.847200
vt 0.866292 0.869775
vt 0.851489 0.857026
vt 0.860812 0.878217
vt 0.843779 0.868578
vt 0.857057 0.887555
vt 0.838469 0.881410
vt 0.855158 0.897441
vt 0.835763 0.895030
vt 0.855172 0.907514
vt 0.835763 0.908911
vt 0.857254 0.917382
vt 0.838510 0.922507
vt 0.861317 0.926637
vt 0.843840 0.935290
vt 0.866871 0.935089
vt 0.851540 0.946776
vt 0.873990 0.942220
vt 0.861336 0.956558
vt 0.882374 0.947758
vt 0.872858 0.964254
vt 0.891684 0.951501
vt 0.885667 0.969563
vt 0.901549 0.953314
vt 0.899272 0.972278
vt 0.911584 0.953140
vt 0.913151 0.972288
vt 0.921404 0.950994
vt 0.926770 0.969592
vt 0.930632 0.946967
vt 0.939604 0.964291
vt 0.938921 0.941217
vt 0.951159 0.956588
vt 0.945961 0.933967
vt 0.960992 0.946779
vt 0.951491 0.925492
vt 0.968723 0.935240
vt 0.955313 0.916111
vt 0.974057 0.922412
vt 0.957292 0.906175
vt 0.976786 0.908789
vt 0.957364 0.896049
vt 0.976807 0.894893
vt 0.955398 0.886125
vt 0.974071 0.881269
vt 0.951486 0.876802
vt 0.968734 0.868445
vt 0.945795 0.868449
vt 0.961000 0.856911
vt 0.938563 0.861396
vt 0.951167 0.847108
vt 0.930080 0.855914
vt 0.939614 0.839411
vt 0.920686 0.852212
vt 0.926782 0.834114
vt 0.715210 0.919654
vt 0.629411 0.955193
vt 0.538328 0.973310
vt 0.445459 0.973310
vt 0.354377 0.955192
vt 0.268577 0.919652
vt 0.191359 0.868056
vt 0.125691 0.802388
vt 0.074097 0.725171
vt 0.038558 0.639371
vt 0.020440 0.548287
vt 0.020441 0.455420
vt 0.038559 0.364336
vt 0.074098 0.278536
vt 0.125693 0.201318
vt 0.191362 0.135651
vt 0.268579 0.084057
vt 0.354378 0.048517
vt 0.445462 0.030400
vt 0.538330 0.030400
vt 0.629414 0.048518
vt 0.715213 0.084058
vt 0.792430 0.135653
vt 0.858098 0.201321
vt 0.909693 0.278538
vt 0.945232 0.364337
vt 0.963349 0.455421
vt 0.963349 0.548290
vt 0.945231 0.639375
vt 0.909691 0.725174
vt 0.858096 0.802392
vt 0.792428 0.868059
vt 0.913164 0.831420
vt 0.910752 0.850427
vt 0.193184 0.136913
vt 0.270135 0.085496
vt 0.355639 0.050079
vt 0.446410 0.032023
vt 0.538959 0.032023
vt 0.629729 0.050078
vt 0.715234 0.085494
vt 0.792186 0.136911
vt 0.857628 0.202353
vt 0.909046 0.279305
vt 0.944464 0.364809
vt 0.962519 0.455580
vt 0.962518 0.548129
vt 0.944463 0.638899
vt 0.909047 0.724402
vt 0.857629 0.801354
vt 0.792187 0.866796
vt 0.715234 0.918214
vt 0.629729 0.953632
vt 0.538958 0.971687
vt 0.446410 0.971687
vt 0.355638 0.953631
vt 0.270134 0.918213
vt 0.193182 0.866796
vt 0.127741 0.801353
vt 0.076324 0.724402
vt 0.040908 0.638899
vt 0.022853 0.548130
vt 0.022853 0.455581
vt 0.040908 0.364811
vt 0.076325 0.279307
vt 0.127742 0.202356
vn -0.098017 0.000000 0.995185
vn -0.290285 0.000000 0.956940
vn -0.471397 0.000000 0.881921
vn -0.634393 0.000000 0.773010
vn -0.773010 0.000000 0.634393
vn -0.881921 0.000000 0.471397
vn -0.956940 0.000000 0.290285
vn -0.995185 0.000000 0.098017
vn -0.995185 0.000000 -0.098017
vn -0.956940 0.000000 -0.290285
vn -0.881921 0.000000 -0.471396
vn -0.773010 0.000000 -0.634393
vn -0.634393 0.000000 -0.773010
vn -0.471397 0.000000 -0.881921
vn -0.290284 0.000000 -0.956940
vn -0.098017 0.000000 -0.995185
vn 0.098018 0.000000 -0.995185
vn 0.290285 0.000000 -0.956940
vn 0.471397 0.000000 -0.881921
vn 0.634394 0.000000 -0.773010
vn 0.773011 0.000000 -0.634393
vn 0.881922 0.000000 -0.471396
vn 0.956941 0.000000 -0.290284
vn 0.995185 0.000000 -0.098016
vn 0.995185 0.000000 0.098018
vn 0.956940 0.000000 0.290286
vn 0.881921 0.000000 0.471398
vn 0.773010 0.000000 0.634394
vn 0.634392 0.000000 0.773011
vn 0.471395 0.000000 0.881922
vn 0.000000 1.000000 0.000000
vn 0.098017 0.000000 0.995185
vn 0.290283 0.000000 0.956941
vn 0.000000 -1.000000 -0.000000
usemtl BlackHole_Material
s off
f 1/1/1 2/2/1 4/3/1 3/4/1
f 3/4/2 4/3/2 6/5/2 5/6/2
f 5/6/3 6/5/3 8/7/3 7/8/3
f 7/8/4 8/7/4 10/9/4 9/10/4
f 9/10/5 10/9/5 12/11/5 11/12/5
f 11/12/6 12/11/6 14/13/6 13/14/6
f 13/14/7 14/13/7 16/15/7 15/16/7
f 15/16/8 16/15/8 18/17/8 17/18/8
f 17/18/9 18/17/9 20/19/9 19/20/9
f 19/20/10 20/19/10 22/21/10 21/22/10
f 21/22/11 22/21/11 24/23/11 23/24/11
f 23/24/12 24/23/12 26/25/12 25/26/12
f 25/26/13 26/25/13 28/27/13 27/28/13
f 27/28/14 28/27/14 30/29/14 29/30/14
f 29/30/15 30/29/15 32/31/15 31/32/15
f 31/32/16 32/31/16 34/33/16 33/34/16
f 33/34/17 34/33/17 36/35/17 35/36/17
f 35/36/18 36/35/18 38/37/18 37/38/18
f 37/38/19 38/37/19 40/39/19 39/40/19
f 39/40/20 40/39/20 42/41/20 41/42/20
f 41/42/21 42/41/21 44/43/21 43/44/21
f 43/44/22 44/43/22 46/45/22 45/46/22
f 45/46/23 46/45/23 48/47/23 47/48/23
f 47/48/24 48/47/24 50/49/24 49/50/24
f 49/50/25 50/49/25 52/51/25 51/52/25
f 51/52/26 52/51/26 54/53/26 53/54/26
f 53/54/27 54/53/27 56/55/27 55/56/27
f 55/56/28 56/55/28 58/57/28 57/58/28
f 57/58/29 58/57/29 60/59/29 59/60/29
f 59/60/30 60/59/30 62/61/30 61/62/30
f 4/63/31 2/64/31 64/65/31 62/66/31 60/67/31 58/68/31 56/69/31 54/70/31 52/71/31 50/72/31 48/73/31 46/74/31 44/75/31 42/76/31 40/77/31 38/78/31 36/79/31 34/80/31 32/81/31 30/82/31 28/83/31 26/84/31 24/85/31 22/86/31 20/87/31 18/88/31 16/89/31 14/90/31 12/91/31 10/92/31 8/93/31 6/94/31
f 63/95/32 64/96/32 2/2/32 1/1/32
f 61/62/33 62/61/33 64/96/33 63/95/33
f 1/97/34 3/98/34 5/99/34 7/100/34 9/101/34 11/102/34 13/103/34 15/104/34 17/105/34 19/106/34 21/107/34 23/108/34 25/109/34 27/110/34 29/111/34 31/112/34 33/113/34 35/114/34 37/115/34 39/116/34 41/117/34 43/118/34 45/119/34 47/120/34 49/121/34 51/122/34 53/123/34 55/124/34 57/125/34 59/126/34 61/127/34 63/128/34
