# Blender v2.69 (sub 0) OBJ File: '2_Medic_Model.blend'
# www.blender.org
g HitboxGroup_Hitbox
v 13.914263 1.270761 5.470043
v 6.254372 1.270761 10.595754
v -6.246451 1.270761 10.595754
v -13.906343 1.270761 5.470043
v 13.914263 -2.234637 5.470043
v 6.254372 -2.234637 10.595754
v -6.246451 -2.234637 10.595754
v -13.906343 -2.234637 5.470043
v 0.572621 -3.987335 11.256739
v 0.572621 3.023459 11.256739
v 2.210578 -3.987335 -13.588412
v 2.210578 3.023459 -13.588412
v -0.779331 -3.987335 11.256739
v -2.417288 3.023459 -13.588412
v -0.779331 3.023459 11.256739
v -2.417288 -3.987335 -13.588412
v 2.205724 3.023459 8.580377
v 5.018778 -3.286256 -0.510062
v 2.205724 -3.987335 8.580377
v 5.018778 2.322379 -0.510062
v -2.305118 -3.987335 8.580377
v -5.118172 2.322379 -0.510062
v -2.305118 3.023459 8.580377
v -5.118172 -3.286256 -0.510062
v -0.103355 -4.376823 12.260631
v -0.103355 3.412947 -13.588412
v -0.103355 3.412947 12.260631
v -0.103355 -4.376823 -13.588412
vn -0.556135 0.000000 -0.831092
vn -0.455276 0.000000 -0.890351
vn 0.556135 0.000000 -0.831092
vn -0.557911 0.000000 0.829901
vn 0.168818 -0.982720 -0.075904
vn -0.166966 0.983143 -0.074519
vn -0.853630 0.000000 -0.520881
vn 0.000000 0.000000 1.000000
vn -0.155846 -0.987781 -0.000034
vn -0.254697 0.966986 -0.008229
vn 0.829481 0.000000 -0.558535
vn 0.254697 -0.966986 -0.008229
vn 0.979334 0.000000 0.202248
vn 0.161675 0.986844 -0.000818
vn -0.977715 0.000000 0.209936
vn -0.155846 0.987781 -0.000034
vn 0.445630 0.000000 -0.895217
vn -0.166966 -0.983143 -0.074518
vn 0.868741 0.000000 -0.495267
vn 0.161675 -0.986844 -0.000818
vn 0.562577 0.000000 0.826745
vn 0.168818 0.982720 -0.075904
vn 0.254697 0.966986 -0.008229
vn -0.829481 0.000000 -0.558535
vn -0.254697 -0.966986 -0.008229
s off
f 5//1 6//1 2//1 1//1
f 21//2 7//2 3//2 23//2
f 7//3 8//3 4//3 3//3
f 18//4 5//4 1//4 20//4
f 22//5 23//5 3//5 4//5
f 18//6 19//6 6//6 5//6
f 19//7 9//7 10//7 17//7
f 28//8 11//8 12//8 26//8
f 20//9 17//9 10//9 12//9
f 28//10 25//10 9//10 11//10
f 25//11 13//11 15//11 27//11
f 26//12 27//12 15//12 14//12
f 24//13 16//13 14//13 22//13
f 24//14 21//14 13//14 16//14
f 11//15 18//15 20//15 12//15
f 11//16 9//16 19//16 18//16
f 6//17 19//17 17//17 2//17
f 1//18 2//18 17//18 20//18
f 13//19 21//19 23//19 15//19
f 14//20 15//20 23//20 22//20
f 8//21 24//21 22//21 4//21
f 8//22 7//22 21//22 24//22
f 16//8 28//8 26//8 14//8
f 16//23 13//23 25//23 28//23
f 9//24 25//24 27//24 10//24
f 12//25 10//25 27//25 26//25
g SyringeGroup_Syringe
v 0.104168 -3.051777 5.205754
v 0.104168 -3.051777 8.078415
v 0.000000 -3.155945 8.373047
v -0.000000 -3.155945 5.205754
v -0.000000 -2.947609 5.205754
v 0.000000 -2.947609 8.078415
v -0.104168 -3.051777 8.373047
v -0.104168 -3.051777 5.205754
v 0.926384 -3.862228 0.880697
v 0.421505 -3.317839 5.223125
v -0.421505 -3.317839 5.223125
v -0.926385 -3.862228 0.880697
v 0.926384 -2.206039 0.880697
v 0.421504 -2.750428 5.223125
v -0.421505 -2.750428 5.223125
v -0.926385 -2.206039 0.880697
v -0.000001 -2.750428 5.223125
v -0.000000 -3.317839 5.223125
v -0.000001 -2.020901 0.022485
v -0.000000 -4.047367 0.022485
vn 0.707107 0.707107 -0.000000
vn 0.632456 0.632455 0.447214
vn -0.707107 -0.707107 0.000000
vn 0.707107 -0.707107 -0.000000
vn -0.707107 0.707107 0.000000
vn 0.993309 0.000000 0.115489
vn 0.000000 0.000000 1.000000
vn -0.993309 0.000000 0.115489
vn 0.679599 0.000000 -0.733583
vn -0.050127 -0.989610 0.134756
vn 0.050127 0.989610 0.134756
vn -0.679600 -0.000000 -0.733583
vn 0.050127 -0.989610 0.134756
vn -0.050127 0.989610 0.134756
s off
f 33//26 34//26 30//26 29//26
f 34//27 35//27 31//27 30//27
f 35//28 36//28 32//28 31//28
f 29//29 30//29 31//29 32//29
f 36//30 35//30 34//30 33//30
f 41//31 42//31 38//31 37//31
f 45//32 43//32 39//32 46//32
f 43//33 44//33 40//33 39//33
f 47//34 41//34 37//34 48//34
f 48//35 46//35 39//35 40//35
f 47//36 45//36 42//36 41//36
f 42//32 45//32 46//32 38//32
f 44//37 47//37 48//37 40//37
f 37//38 38//38 46//38 48//38
f 44//39 43//39 45//39 47//39
g PlasmaCannonGroup_PlasmaCannon
v 0.471411 1.993597 -1.353296
v 0.471411 1.993597 0.414495
v -0.471411 1.993597 0.414495
v -0.471411 1.993597 -1.353296
v 0.471411 2.936419 -1.353296
v 0.471411 2.936419 0.414495
v -0.471411 2.936419 0.414495
v -0.471411 2.936419 -1.353296
v 0.674118 3.139126 -0.469401
v 0.674118 1.790891 -0.469401
v -0.674118 3.139126 -0.469401
v -0.674118 1.790891 -0.469401
v 0.000000 2.031669 0.414495
v -0.433339 2.465008 0.414495
v 0.433339 2.465008 0.414495
v -0.000000 2.898347 0.414495
v 0.000000 2.031669 1.372048
v -0.433339 2.465008 1.372048
v 0.433339 2.465008 1.372048
v -0.000000 2.898347 1.372048
vn 0.974697 0.000000 0.223531
vn -0.974697 0.000000 -0.223531
vn 0.000000 0.000000 -1.000000
vn 0.000000 -0.974697 0.223531
vn 0.000000 0.974697 0.223530
vn 0.974697 0.000000 -0.223530
vn -0.974697 0.000000 0.223531
vn 0.000000 -0.974697 -0.223530
vn 0.000000 0.974697 -0.223530
vn -0.707107 -0.707107 0.000000
vn 0.000000 0.000000 1.000000
vn -0.707107 0.707107 0.000000
vn 0.707107 0.707107 0.000000
vn 0.707107 -0.707107 0.000000
s off
f 57//40 54//40 50//40 58//40
f 59//41 56//41 52//41 60//41
f 56//42 53//42 49//42 52//42
f 58//43 50//43 51//43 60//43
f 59//44 55//44 54//44 57//44
f 53//45 57//45 58//45 49//45
f 55//46 59//46 60//46 51//46
f 49//47 58//47 60//47 52//47
f 56//48 59//48 57//48 53//48
f 62//49 61//49 65//49 66//49
f 50//50 54//50 55//50 51//50
f 67//50 68//50 66//50 65//50
f 64//51 62//51 66//51 68//51
f 63//52 64//52 68//52 67//52
f 61//53 63//53 67//53 65//53
g BufferGroup_L_Buffer_L
v 5.524347 0.708362 7.264685
v 5.524347 0.708362 8.001265
v 4.787767 0.708362 8.001265
v 4.787767 0.708362 7.264685
v 5.524347 1.444941 7.264685
v 5.524347 1.444941 8.001265
v 4.787767 1.444941 8.001265
v 4.787767 1.444941 7.264685
v 5.524347 0.708362 8.737844
v 4.787767 0.708362 8.737844
v 5.524347 1.444941 8.737844
v 4.787767 1.444941 8.737844
v 4.051188 0.708362 8.001265
v 4.051188 0.708362 7.264685
v 4.051188 1.444941 8.001265
v 4.051188 1.444941 7.264685
v 5.524347 0.708362 6.528105
v 4.787767 0.708362 6.528105
v 5.524347 1.444941 6.528105
v 4.787767 1.444941 6.528105
v 6.260927 0.708362 7.264685
v 6.260927 0.708362 8.001265
v 6.260927 1.444941 7.264685
v 6.260927 1.444941 8.001265
vn 0.000000 -1.000000 0.000000
vn 0.000000 1.000000 0.000000
vn 0.000000 0.000000 1.000000
vn -1.000000 0.000000 0.000000
vn 1.000000 0.000000 0.000000
vn 0.000000 0.000000 -1.000000
s off
f 70//54 69//54 89//54 90//54
f 71//54 70//54 77//54 78//54
f 72//54 71//54 81//54 82//54
f 69//54 72//54 86//54 85//54
f 69//54 70//54 71//54 72//54
f 76//55 75//55 74//55 73//55
f 79//56 80//56 78//56 77//56
f 75//57 71//57 78//57 80//57
f 74//55 75//55 80//55 79//55
f 70//58 74//58 79//58 77//58
f 83//57 84//57 82//57 81//57
f 76//59 72//59 82//59 84//59
f 75//55 76//55 84//55 83//55
f 71//56 75//56 83//56 81//56
f 88//59 87//59 85//59 86//59
f 76//55 73//55 87//55 88//55
f 72//57 76//57 88//57 86//57
f 73//58 69//58 85//58 87//58
f 91//58 92//58 90//58 89//58
f 74//56 70//56 90//56 92//56
f 73//55 74//55 92//55 91//55
f 69//59 73//59 91//59 89//59
g BufferGroup_R_Buffer_R
v -4.787767 0.708362 7.264685
v -4.787767 0.708362 8.001265
v -5.524347 0.708362 8.001265
v -5.524347 0.708362 7.264685
v -4.787767 1.444941 7.264685
v -4.787767 1.444941 8.001265
v -5.524347 1.444941 8.001265
v -5.524347 1.444941 7.264685
v -4.787767 0.708362 8.737844
v -5.524347 0.708362 8.737844
v -4.787767 1.444941 8.737844
v -5.524347 1.444941 8.737844
v -6.260927 0.708362 8.001265
v -6.260927 0.708362 7.264685
v -6.260927 1.444941 8.001265
v -6.260927 1.444941 7.264685
v -4.787767 0.708362 6.528105
v -5.524347 0.708362 6.528105
v -4.787767 1.444941 6.528105
v -5.524347 1.444941 6.528105
v -4.051188 0.708362 7.264685
v -4.051188 0.708362 8.001265
v -4.051188 1.444941 7.264685
v -4.051188 1.444941 8.001265
vn 0.000000 -1.000000 0.000000
vn 0.000000 1.000000 0.000000
vn 0.000000 0.000000 1.000000
vn -1.000000 0.000000 0.000000
vn 1.000000 0.000000 0.000000
vn 0.000000 0.000000 -1.000000
s off
f 94//60 93//60 113//60 114//60
f 95//60 94//60 101//60 102//60
f 96//60 95//60 105//60 106//60
f 93//60 96//60 110//60 109//60
f 93//60 94//60 95//60 96//60
f 100//61 99//61 98//61 97//61
f 103//62 104//62 102//62 101//62
f 99//63 95//63 102//63 104//63
f 98//61 99//61 104//61 103//61
f 94//64 98//64 103//64 101//64
f 107//63 108//63 106//63 105//63
f 100//65 96//65 106//65 108//65
f 99//61 100//61 108//61 107//61
f 95//62 99//62 107//62 105//62
f 112//65 111//65 109//65 110//65
f 100//61 97//61 111//61 112//61
f 96//63 100//63 112//63 110//63
f 97//64 93//64 109//64 111//64
f 115//64 116//64 114//64 113//64
f 98//62 94//62 114//62 116//62
f 97//61 98//61 116//61 115//61
f 93//65 97//65 115//65 113//65
g BodyGroup_Body
v 2.495940 0.280205 -7.742225
v 0.471453 0.399389 -5.514951
v 1.123591 0.399390 -4.967742
v 2.965480 0.280205 -7.348235
v 2.495940 -0.332736 -7.742224
v 0.471452 -0.451917 -5.514951
v 1.123591 -0.451917 -4.967741
v 2.965480 -0.332736 -7.348235
v 2.812195 0.241897 -5.507863
v 0.758360 0.399391 -3.305213
v 1.410499 0.399391 -2.758004
v 3.223042 0.241897 -5.163121
v 2.812194 -0.294426 -5.507863
v 0.758360 -0.451916 -3.305213
v 1.410499 -0.451916 -2.758003
v 3.223042 -0.294426 -5.163121
v 2.131868 0.318512 -9.976588
v 0.136726 0.399388 -7.724689
v 0.788865 0.399388 -7.177479
v 2.660100 0.318513 -9.533349
v 2.131868 -0.371046 -9.976587
v 0.136726 -0.451919 -7.724689
v 0.788865 -0.451918 -7.177479
v 2.660100 -0.371046 -9.533348
v -2.662964 -0.332735 -7.742224
v -0.638477 -0.451918 -5.514949
v -1.290616 -0.451918 -4.967741
v -3.132504 -0.332735 -7.348233
v -2.662964 0.280206 -7.742224
v -0.638477 0.399389 -5.514949
v -1.290616 0.399389 -4.967741
v -3.132504 0.280206 -7.348233
v -2.979219 -0.294426 -5.507863
v -0.925385 -0.451918 -3.305212
v -1.577524 -0.451918 -2.758003
v -3.390066 -0.294426 -5.163120
v -2.979219 0.241897 -5.507863
v -0.925385 0.399389 -3.305212
v -1.577524 0.399389 -2.758003
v -3.390066 0.241897 -5.163120
v -2.298892 -0.371044 -9.976587
v -0.303751 -0.451918 -7.724688
v -0.955889 -0.451918 -7.177478
v -2.827124 -0.371044 -9.533348
v -2.298892 0.318515 -9.976587
v -0.303751 0.399389 -7.724688
v -0.955889 0.399389 -7.177478
v -2.827124 0.318515 -9.533348
v 0.333671 0.390918 -13.209579
v 0.431529 0.488776 -9.818065
v 0.431529 -0.541305 -9.818065
v 0.333671 -0.443448 -13.209579
v -0.500695 0.390918 -13.209579
v -0.598552 0.488776 -9.818065
v -0.598552 -0.541305 -9.818065
v -0.500695 -0.443448 -13.209579
v 1.298509 1.671873 5.634948
v 1.021358 1.506212 6.601764
v -1.188381 1.506212 6.601764
v -1.465533 1.671873 5.634948
v 1.035925 1.948730 6.003519
v 0.910871 1.854201 6.437127
v -1.077894 1.854201 6.437127
v -1.202949 1.948730 6.003519
v 12.425456 0.408678 5.726487
v 5.861581 0.710315 9.941946
v 2.294869 0.710315 8.168976
v 4.934336 0.710315 3.849505
v 12.425456 -0.461208 5.726488
v 5.861581 -0.762844 9.941948
v 2.294869 -0.762844 8.168976
v 4.934336 -0.762845 3.849505
v 7.857801 -0.622894 8.659932
v 7.857801 0.570365 8.659932
v 2.837560 -0.762844 7.197966
v 2.837560 0.710315 7.197965
v 9.797086 0.510702 7.414482
v 3.764823 -0.762844 5.547799
v 9.797086 -0.563231 7.414483
v 3.764822 0.710315 5.547799
v 4.192409 -0.762844 9.055462
v 4.192408 0.710315 9.055461
v 8.332439 -0.622894 4.924666
v 8.332439 0.570365 4.924666
v 5.202363 0.710315 7.954895
v 5.202363 -0.762844 7.954896
v 6.674647 0.636657 6.433439
v 6.674648 -0.689186 6.433439
v 12.883103 0.373100 5.432664
v 12.883103 -0.425630 5.432664
v 8.707313 -0.574091 4.614627
v 8.707313 0.521561 4.614627
v 4.039968 0.710315 3.559875
v 4.039968 -0.762845 3.559875
v 3.136627 -0.762844 5.298795
v 3.136627 0.710315 5.298795
v 2.222246 -0.760959 4.862264
v 1.593485 -0.790981 6.953797
v 2.222246 0.708430 4.862264
v 1.593485 0.738452 6.953797
v 2.428996 0.710315 7.028503
v 2.428996 -0.762844 7.028503
v 1.114343 -1.545363 6.953797
v 1.787519 -1.896367 -0.411999
v 1.114343 1.492834 6.953797
v 1.787519 1.843838 -0.411999
v 0.287724 -0.300272 -9.987534
v 0.287724 0.247743 -9.987534
v 1.991670 1.850186 4.862264
v 1.991670 -1.902714 4.862264
v 1.995411 0.632724 -0.411999
v 0.287724 0.070290 -9.987534
v 1.995411 -0.685253 -0.411999
v 0.287724 -0.122820 -9.987534
v -12.592481 0.408678 5.726487
v -6.028605 0.710315 9.941946
v -2.461892 0.710315 8.168976
v -5.101359 0.710315 3.849505
v -12.592481 -0.461208 5.726488
v -6.028605 -0.762844 9.941948
v -2.461893 -0.762844 8.168976
v -5.101360 -0.762845 3.849505
v -8.024824 -0.622894 8.659932
v -8.024824 0.570365 8.659932
v -3.004583 -0.762844 7.197966
v -3.004583 0.710315 7.197965
v -9.964108 0.510702 7.414482
v -3.931846 -0.762844 5.547799
v -9.964108 -0.563231 7.414483
v -3.931846 0.710315 5.547799
v -4.359432 -0.762844 9.055462
v -4.359432 0.710315 9.055461
v -8.499462 -0.622894 4.924666
v -8.499462 0.570365 4.924666
v -5.369387 0.710315 7.954895
v -5.369387 -0.762844 7.954896
v -6.841671 0.636657 6.433439
v -6.841672 -0.689186 6.433439
v -13.050126 0.373100 5.432664
v -13.050126 -0.425630 5.432664
v -8.874335 -0.574091 4.614627
v -8.874335 0.521561 4.614627
v -4.206992 0.710315 3.559875
v -4.206992 -0.762845 3.559875
v -3.303650 -0.762844 5.298795
v -3.303650 0.710315 5.298795
v -2.389269 -0.760959 4.862264
v -1.760509 -0.790981 6.953797
v -2.389269 0.708430 4.862264
v -1.760509 0.738452 6.953797
v -2.596019 0.710315 7.028503
v -2.596019 -0.762844 7.028503
v -1.281367 -1.545363 6.953797
v -1.954542 -1.896367 -0.411999
v -1.281367 1.492834 6.953797
v -1.954542 1.843838 -0.411999
v -0.454748 -0.300272 -9.987534
v -0.454748 0.247743 -9.987534
v -2.158694 1.850186 4.862264
v -2.158694 -1.902714 4.862264
v -2.162434 0.632724 -0.411999
v -0.454748 0.070290 -9.987534
v -2.162434 -0.685253 -0.411999
v -0.454748 -0.122820 -9.987534
v 0.317075 -0.451918 6.940913
v 0.317075 -0.451918 9.089133
v -0.484098 -0.451918 9.089133
v -0.484098 -0.451918 6.940913
v 0.317075 0.399389 6.940913
v 0.317075 0.399389 9.089133
v -0.484098 0.399389 9.089133
v -0.484098 0.399389 6.940913
vn -0.739991 -0.000000 -0.672617
vn 0.790896 0.000001 0.611950
vn 0.642788 -0.000001 -0.766045
vn 0.025453 0.999216 -0.030334
vn 0.025453 -0.999216 -0.030333
vn -0.731382 0.000000 -0.681968
vn 0.798611 0.000000 0.601848
vn 0.642786 0.000000 -0.766045
vn 0.033614 0.998632 -0.040061
vn 0.033614 -0.998632 -0.040059
vn -0.748489 -0.000000 -0.663148
vn 0.783046 0.000000 0.621963
vn 0.642787 -0.000001 -0.766045
vn 0.017279 0.999639 -0.020593
vn 0.017279 -0.999639 -0.020591
vn 0.739991 0.000000 -0.672617
vn -0.790896 0.000000 0.611950
vn -0.642788 0.000000 -0.766044
vn -0.025453 -0.999216 -0.030333
vn -0.025453 0.999216 -0.030333
vn 0.731382 0.000000 -0.681968
vn -0.798611 0.000000 0.601848
vn -0.033614 -0.998632 -0.040060
vn -0.033614 0.998632 -0.040060
vn 0.748489 0.000000 -0.663147
vn -0.783047 0.000000 0.621963
vn -0.642787 0.000000 -0.766044
vn -0.017279 -0.999639 -0.020592
vn -0.017279 0.999639 -0.020592
vn 0.000000 0.999584 -0.028842
vn 0.000000 0.000000 1.000000
vn -0.000000 -0.999584 -0.028842
vn 0.000000 0.000000 -1.000000
vn 0.999584 -0.000000 -0.028842
vn -0.999584 0.000000 -0.028842
vn 0.855576 0.406013 0.321158
vn 0.000000 0.427663 0.903938
vn -0.855576 0.406013 0.321159
vn 0.000000 0.799554 -0.600594
vn 0.000000 0.977052 0.213002
vn -0.540379 -0.000000 -0.841422
vn 0.423265 -0.000000 -0.906006
vn -0.015692 -0.999874 0.002368
vn 0.637322 0.000000 0.770597
vn 0.000000 -1.000000 0.000000
vn -0.036834 0.999247 0.012220
vn 0.872918 0.000000 0.487868
vn -0.017152 -0.999800 0.010243
vn -0.044140 0.999005 -0.006289
vn -0.540379 -0.000001 -0.841422
vn -0.031606 -0.999475 -0.007204
vn -0.039685 0.999212 -0.000599
vn 0.469047 -0.000001 -0.883173
vn -0.301661 0.000000 0.953415
vn -0.036834 -0.999247 0.012220
vn -0.000000 1.000000 -0.000000
vn -0.044140 -0.999006 -0.006288
vn -0.017152 0.999800 0.010243
vn -0.039685 -0.999212 -0.000599
vn -0.031606 0.999474 -0.007204
vn -0.192246 0.000000 0.981347
vn -0.050897 -0.996314 0.069052
vn -0.050897 0.996314 0.069052
vn -0.540265 0.000000 -0.841495
vn 0.887404 0.000000 0.460992
vn -0.308087 0.000000 0.951358
vn -0.430828 0.000000 0.902434
vn -0.015692 0.999874 0.002368
vn 0.383125 -0.000000 -0.923696
vn 0.089058 -0.000000 -0.996026
vn -0.972938 -0.145665 0.179369
vn -0.879879 0.329336 -0.342566
vn -0.879879 -0.329336 -0.342566
vn -0.999076 0.000000 0.042968
vn -0.984467 0.000000 0.175568
vn -0.982226 -0.183043 0.041555
vn -0.982226 0.183043 0.041555
vn -0.972938 0.145665 0.179369
vn -0.540379 0.000001 0.841422
vn 0.423265 0.000000 0.906006
vn -0.015692 0.999874 -0.002368
vn 0.637322 0.000000 -0.770597
vn -0.036834 -0.999247 -0.012220
vn -0.540379 0.000000 0.841422
vn 0.872918 0.000000 -0.487868
vn -0.017152 0.999800 -0.010243
vn -0.044140 -0.999005 0.006289
vn -0.031606 0.999474 0.007204
vn -0.039685 -0.999212 0.000599
vn 0.469047 0.000001 0.883173
vn -0.301661 -0.000000 -0.953415
vn -0.036834 0.999247 -0.012220
vn -0.044140 0.999005 0.006288
vn -0.017152 -0.999800 -0.010243
vn -0.039685 0.999212 0.000599
vn -0.031606 -0.999474 0.007204
vn -0.192246 0.000000 -0.981347
vn -0.050897 0.996314 -0.069052
vn -0.050897 -0.996314 -0.069052
vn -0.540267 0.000001 0.841494
vn 0.887404 0.000000 -0.460992
vn -0.308087 -0.000000 -0.951358
vn -0.430828 0.000000 -0.902434
vn -0.015692 -0.999874 -0.002368
vn 0.383125 0.000000 0.923696
vn 0.089058 0.000000 0.996026
vn -0.972938 0.145665 -0.179369
vn -0.879879 -0.329336 0.342566
vn 0.000000 -0.986391 0.164416
vn -0.879879 0.329336 0.342566
vn -0.999076 0.000000 -0.042968
vn -0.984467 0.000000 -0.175568
vn 0.000000 0.986391 0.164416
vn -0.982226 0.183042 -0.041555
vn -0.982226 -0.183042 -0.041555
vn -0.972938 -0.145665 -0.179369
vn 0.000000 0.999999 0.001204
vn 0.000000 0.985716 -0.168416
vn 0.000000 -0.985716 -0.168416
vn 0.000000 -0.999999 0.001204
vn 1.000000 0.000000 0.000000
vn -1.000000 0.000000 0.000000
s off
f 121//66 122//66 118//66 117//66
f 123//67 124//67 120//67 119//67
f 124//68 121//68 117//68 120//68
f 117//69 118//69 119//69 120//69
f 124//70 123//70 122//70 121//70
f 129//71 130//71 126//71 125//71
f 131//72 132//72 128//72 127//72
f 132//73 129//73 125//73 128//73
f 125//74 126//74 127//74 128//74
f 132//75 131//75 130//75 129//75
f 137//76 138//76 134//76 133//76
f 139//77 140//77 136//77 135//77
f 140//78 137//78 133//78 136//78
f 133//79 134//79 135//79 136//79
f 140//80 139//80 138//80 137//80
f 145//81 146//81 142//81 141//81
f 147//82 148//82 144//82 143//82
f 148//83 145//83 141//83 144//83
f 141//84 142//84 143//84 144//84
f 148//85 147//85 146//85 145//85
f 153//86 154//86 150//86 149//86
f 155//87 156//87 152//87 151//87
f 156//83 153//83 149//83 152//83
f 149//88 150//88 151//88 152//88
f 156//89 155//89 154//89 153//89
f 161//90 162//90 158//90 157//90
f 163//91 164//91 160//91 159//91
f 164//92 161//92 157//92 160//92
f 157//93 158//93 159//93 160//93
f 164//94 163//94 162//94 161//94
f 169//95 170//95 166//95 165//95
f 170//96 171//96 167//96 166//96
f 171//97 172//97 168//97 167//97
f 172//98 169//98 165//98 168//98
f 165//99 166//99 167//99 168//99
f 172//100 171//100 170//100 169//100
f 177//101 178//101 174//101 173//101
f 178//102 179//102 175//102 174//102
f 179//103 180//103 176//103 175//103
f 180//104 177//104 173//104 176//104
f 180//105 179//105 178//105 177//105
f 189//106 186//106 182//106 190//106
f 197//107 187//107 183//107 198//107
f 212//108 217//108 216//108 215//108
f 200//109 199//109 207//109 208//109
f 201//110 198//110 183//110 192//110
f 202//111 197//111 186//111 189//111
f 195//106 189//106 190//106 193//106
f 187//112 191//112 192//112 183//112
f 203//113 201//113 192//113 196//113
f 204//114 202//114 189//114 195//114
f 196//110 192//110 217//110 212//110
f 185//115 195//115 193//115 181//115
f 200//116 203//116 196//116 184//116
f 199//117 204//117 195//117 185//117
f 186//118 197//118 198//118 182//118
f 188//119 199//119 200//119 184//119
f 190//120 182//120 198//120 201//120
f 191//121 187//121 197//121 202//121
f 193//122 190//122 201//122 203//122
f 194//123 191//123 202//123 204//123
f 181//124 193//124 203//124 200//124
f 188//125 194//125 204//125 199//125
f 207//126 206//126 205//126 208//126
f 181//127 200//127 208//127 205//127
f 199//128 185//128 206//128 207//128
f 185//129 181//129 205//129 206//129
f 211//130 210//130 209//130 212//130
f 184//110 196//110 212//110 209//110
f 188//131 184//131 209//131 210//131
f 194//121 188//121 210//121 211//121
f 212//132 215//132 213//132 211//132
f 213//133 214//133 218//133 211//133
f 211//121 218//121 191//121 194//121
f 217//134 192//134 191//134 218//134
f 216//135 217//135 218//135 214//135
f 227//136 222//136 224//136 228//136
f 214//137 213//137 226//137 219//137
f 221//138 225//138 215//138 216//138
f 215//139 227//139 229//139 213//139
f 229//140 227//140 228//140 230//140
f 225//141 222//141 227//141 215//141
f 213//142 229//142 220//142 226//142
f 220//143 229//143 230//143 223//143
f 239//144 236//144 232//144 240//144
f 247//145 237//145 233//145 248//145
f 262//146 267//146 266//146 265//146
f 250//147 249//147 257//147 258//147
f 251//121 248//121 233//121 242//121
f 252//148 247//148 236//148 239//148
f 245//149 239//149 240//149 243//149
f 237//150 241//150 242//150 233//150
f 253//151 251//151 242//151 246//151
f 254//152 252//152 239//152 245//152
f 246//121 242//121 267//121 262//121
f 235//144 245//144 243//144 231//144
f 250//153 253//153 246//153 234//153
f 249//154 254//154 245//154 235//154
f 236//155 247//155 248//155 232//155
f 238//156 249//156 250//156 234//156
f 240//157 232//157 248//157 251//157
f 241//110 237//110 247//110 252//110
f 243//158 240//158 251//158 253//158
f 244//159 241//159 252//159 254//159
f 231//160 243//160 253//160 250//160
f 238//161 244//161 254//161 249//161
f 257//162 256//162 255//162 258//162
f 231//163 250//163 258//163 255//163
f 249//164 235//164 256//164 257//164
f 235//165 231//165 255//165 256//165
f 261//166 260//166 259//166 262//166
f 234//121 246//121 262//121 259//121
f 238//167 234//167 259//167 260//167
f 244//110 238//110 260//110 261//110
f 223//96 230//96 280//96 273//96
f 262//168 265//168 263//168 261//168
f 263//169 264//169 268//169 261//169
f 261//110 268//110 241//110 244//110
f 267//170 242//170 241//170 268//170
f 266//171 267//171 268//171 264//171
f 228//96 278//96 280//96 230//96
f 224//96 274//96 278//96 228//96
f 277//172 272//172 274//172 278//172
f 264//173 263//173 276//173 269//173
f 222//174 272//174 274//174 224//174
f 271//175 275//175 265//175 266//175
f 265//176 277//176 279//176 263//176
f 279//177 277//177 278//177 280//177
f 223//178 273//178 270//178 220//178
f 275//179 272//179 277//179 265//179
f 263//180 279//180 270//180 276//180
f 270//181 279//181 280//181 273//181
f 220//182 270//182 276//182 226//182
f 219//183 226//183 276//183 269//183
f 219//98 269//98 264//98 214//98
f 214//98 264//98 266//98 216//98
f 221//98 216//98 266//98 271//98
f 221//184 271//184 275//184 225//184
f 222//185 225//185 275//185 272//185
f 285//186 286//186 282//186 281//186
f 286//96 287//96 283//96 282//96
f 287//187 288//187 284//187 283//187
f 281//110 282//110 283//110 284//110
f 288//121 287//121 286//121 285//121
g EmitterGroup_Emitter
v -1.797595 -0.010397 8.661758
v 0.000000 -0.010398 11.775285
v 1.797596 -0.010397 8.661758
v 0.000000 -1.985760 10.214405
v 0.000000 1.964965 10.214406
vt 0.892591 0.614836
vt 0.974806 0.769486
vt 0.988915 0.366317
vt 0.632705 0.555684
vn -0.805441 -0.367448 0.465022
vn 0.805442 -0.367448 0.465022
vn -0.000000 -0.617963 -0.786207
vn 0.805442 0.367448 0.465022
vn 0.000000 0.617963 -0.786207
vn -0.805442 0.367448 0.465022
s off
f 292/1/188 290/2/188 289/3/188
f 292/1/189 291/4/189 290/2/189
f 292/1/190 289/3/190 291/4/190
f 293/1/191 290/2/191 291/4/191
f 293/1/192 291/4/192 289/3/192
f 293/1/193 289/3/193 290/2/193
