# Blender v2.69 (sub 0) OBJ File: '3_Switchblade_Export.blend'
# www.blender.org
mtllib Switchblade_Laser.mtl
g Switchblade_Laser_Switchblade_Laser_Mesh
v 3.509163 -2.867968 -2.402003
v 0.982566 -0.982566 8.125490
v -0.982567 -0.982566 8.125490
v -3.509165 -2.867968 -2.402003
v 3.509163 2.867969 -2.402004
v 0.982566 0.982567 8.125490
v -0.982567 0.982567 8.125490
v -3.509165 2.867969 -2.402004
v -0.000001 0.982567 8.125490
v -0.000001 -0.982566 8.125490
v -0.000001 3.509164 -5.911167
v -0.000001 -3.509165 -5.911167
vt 0.990458 0.804712
vt 0.651240 0.591455
vt 0.625054 0.616653
vt 0.598935 0.641786
vt 0.803650 0.984471
vt 0.986934 0.987996
vn 0.972387 0.000000 0.233373
vn 0.000000 0.000000 1.000000
vn -0.972387 0.000000 0.233373
vn 0.707107 0.000000 -0.707107
vn -0.002213 -0.984208 0.177003
vn 0.002213 0.984208 0.177002
vn -0.707107 -0.000000 -0.707107
vn 0.002213 -0.984208 0.177003
vn -0.002213 0.984208 0.177002
usemtl Boss_Switchblade_MAT
s off
f 5/1/1 6/2/1 2/2/1 1/1/1
f 9/3/2 7/4/2 3/4/2 10/3/2
f 7/4/3 8/5/3 4/5/3 3/4/3
f 11/6/4 5/1/4 1/1/4 12/6/4
f 12/6/5 10/3/5 3/4/5 4/5/5
f 11/6/6 9/3/6 6/2/6 5/1/6
f 6/2/2 9/3/2 10/3/2 2/2/2
f 8/5/7 11/6/7 12/6/7 4/5/7
f 1/1/8 2/2/8 10/3/8 12/6/8
f 8/5/9 7/4/9 9/3/9 11/6/9
