# Blender v2.69 (sub 0) OBJ File: 'Peon Enemies.blend'
# www.blender.org
g Sentry_Arms_Sentry_Arms_Mesh
v -1.402429 -0.301618 -0.490421
v -0.352999 -0.080200 1.394353
v -0.484390 -0.080200 1.486354
v -1.896571 -0.301618 -0.144418
v -1.402429 0.301618 -0.490421
v -0.352999 0.080200 1.394353
v -0.484390 0.080200 1.486354
v -1.896571 0.301618 -0.144418
v 1.896663 -0.301618 -0.144418
v 0.484482 -0.080200 1.486354
v 0.353090 -0.080200 1.394353
v 1.402521 -0.301618 -0.490420
v 1.896663 0.301618 -0.144418
v 0.484482 0.080200 1.486354
v 0.353090 0.080200 1.394353
v 1.402521 0.301618 -0.490420
vn 0.873698 0.000000 -0.486469
vn 0.573575 0.000000 0.819153
vn -0.755954 0.000000 0.654625
vn -0.573577 0.000000 -0.819152
vn 0.058872 -0.994719 0.084078
vn 0.058872 0.994719 0.084078
vn 0.755954 0.000000 0.654625
vn -0.573576 0.000000 0.819152
vn -0.873698 0.000000 -0.486470
vn 0.573577 0.000000 -0.819152
vn -0.058872 -0.994719 0.084078
vn -0.058872 0.994719 0.084078
s off
f 5//1 6//1 2//1 1//1
f 6//2 7//2 3//2 2//2
f 7//3 8//3 4//3 3//3
f 8//4 5//4 1//4 4//4
f 1//5 2//5 3//5 4//5
f 8//6 7//6 6//6 5//6
f 13//7 14//7 10//7 9//7
f 14//8 15//8 11//8 10//8
f 15//9 16//9 12//9 11//9
f 16//10 13//10 9//10 12//10
f 9//11 10//11 11//11 12//11
f 16//12 15//12 14//12 13//12
g Sentry_Body_Sentry_Body_Mesh
v 1.025811 -0.706676 -0.319671
v 0.251422 -0.161642 1.236837
v -0.246468 -0.161642 1.236837
v -1.020857 -0.706676 -0.319671
v 1.025811 0.706676 -0.319671
v 0.251422 0.161642 1.236837
v -0.246468 0.161642 1.236837
v -1.020857 0.706676 -0.319671
v 0.002477 -0.303685 -1.485086
v 0.002477 -0.606063 -0.320283
v -0.109717 -0.280568 -1.485086
v -0.221428 -0.559930 -0.320283
v -0.204830 -0.214737 -1.485086
v -0.411246 -0.428552 -0.320283
v -0.268383 -0.116215 -1.485086
v -0.538078 -0.231930 -0.320283
v -0.290699 -0.000000 -1.485086
v -0.582615 0.000000 -0.320283
v -0.268383 0.116215 -1.485086
v -0.538078 0.231931 -0.320283
v -0.204830 0.214737 -1.485086
v -0.411246 0.428552 -0.320283
v -0.109717 0.280568 -1.485086
v -0.221428 0.559930 -0.320283
v 0.002477 0.303685 -1.485086
v 0.002477 0.606064 -0.320283
v 0.114670 0.280568 -1.485086
v 0.226381 0.559930 -0.320283
v 0.209783 0.214737 -1.485086
v 0.416199 0.428552 -0.320283
v 0.273336 0.116215 -1.485086
v 0.543031 0.231931 -0.320283
v 0.295653 -0.000000 -1.485086
v 0.587568 0.000000 -0.320283
v 0.273336 -0.116215 -1.485086
v 0.543031 -0.231931 -0.320283
v 0.209783 -0.214738 -1.485086
v 0.416199 -0.428552 -0.320283
v 0.114670 -0.280568 -1.485086
v 0.226381 -0.559930 -0.320283
v 0.002477 -0.305327 -1.232992
v -0.109815 -0.282085 -1.232992
v -0.205012 -0.215898 -1.232992
v -0.268620 -0.116843 -1.232992
v -0.290956 -0.000000 -1.232992
v -0.268620 0.116843 -1.232992
v -0.205012 0.215898 -1.232992
v -0.109815 0.282085 -1.232992
v 0.002477 0.305327 -1.232992
v 0.114768 0.282085 -1.232992
v 0.209965 0.215898 -1.232992
v 0.273573 0.116843 -1.232992
v 0.295909 -0.000000 -1.232992
v 0.273573 -0.116843 -1.232992
v 0.209965 -0.215899 -1.232992
v 0.114768 -0.282085 -1.232992
vn 0.895315 0.000000 0.445434
vn 0.000000 0.000000 1.000000
vn -0.895315 0.000000 0.445434
vn 0.000000 0.000000 -1.000000
vn 0.000000 -0.943810 0.330489
vn 0.000000 0.943810 0.330489
vn -0.192326 -0.932018 -0.307170
vn -0.542583 -0.782750 -0.304804
vn -0.801567 -0.516276 -0.301577
vn -0.937066 -0.179672 -0.299373
vn -0.937066 0.179672 -0.299373
vn -0.801567 0.516276 -0.301577
vn -0.542583 0.782750 -0.304805
vn -0.192326 0.932018 -0.307170
vn 0.192325 0.932018 -0.307170
vn 0.542583 0.782750 -0.304805
vn 0.801567 0.516277 -0.301577
vn 0.937066 0.179672 -0.299373
vn 0.937066 -0.179673 -0.299373
vn 0.801567 -0.516277 -0.301577
vn 0.192325 -0.932018 -0.307170
vn 0.542583 -0.782750 -0.304804
vn -0.202238 -0.979317 -0.006175
vn -0.569975 -0.821649 -0.004680
vn -0.840891 -0.541197 -0.002618
vn -0.982135 -0.188173 -0.001196
vn -0.982135 0.188173 -0.001196
vn -0.840891 0.541198 -0.002619
vn -0.569975 0.821649 -0.004680
vn -0.202238 0.979317 -0.006175
vn 0.202237 0.979317 -0.006175
vn 0.569975 0.821649 -0.004680
vn 0.840891 0.541198 -0.002619
vn 0.982135 0.188172 -0.001196
vn 0.982135 -0.188173 -0.001196
vn 0.840891 -0.541198 -0.002618
vn 0.202237 -0.979317 -0.006175
vn 0.569974 -0.821649 -0.004680
s off
f 21//13 22//13 18//13 17//13
f 22//14 23//14 19//14 18//14
f 23//15 24//15 20//15 19//15
f 24//16 21//16 17//16 20//16
f 17//17 18//17 19//17 20//17
f 24//18 23//18 22//18 21//18
f 57//19 26//19 28//19 58//19
f 58//20 28//20 30//20 59//20
f 59//21 30//21 32//21 60//21
f 60//22 32//22 34//22 61//22
f 61//23 34//23 36//23 62//23
f 62//24 36//24 38//24 63//24
f 63//25 38//25 40//25 64//25
f 64//26 40//26 42//26 65//26
f 65//27 42//27 44//27 66//27
f 66//28 44//28 46//28 67//28
f 67//29 46//29 48//29 68//29
f 68//30 48//30 50//30 69//30
f 69//31 50//31 52//31 70//31
f 70//32 52//32 54//32 71//32
f 28//14 26//14 56//14 54//14 52//14 50//14 48//14 46//14 44//14 42//14 40//14 38//14 36//14 34//14 32//14 30//14
f 72//33 56//33 26//33 57//33
f 71//34 54//34 56//34 72//34
f 25//16 27//16 29//16 31//16 33//16 35//16 37//16 39//16 41//16 43//16 45//16 47//16 49//16 51//16 53//16 55//16
f 25//35 57//35 58//35 27//35
f 27//36 58//36 59//36 29//36
f 29//37 59//37 60//37 31//37
f 31//38 60//38 61//38 33//38
f 33//39 61//39 62//39 35//39
f 35//40 62//40 63//40 37//40
f 37//41 63//41 64//41 39//41
f 39//42 64//42 65//42 41//42
f 41//43 65//43 66//43 43//43
f 43//44 66//44 67//44 45//44
f 45//45 67//45 68//45 47//45
f 47//46 68//46 69//46 49//46
f 49//47 69//47 70//47 51//47
f 51//48 70//48 71//48 53//48
f 55//49 72//49 57//49 25//49
f 53//50 71//50 72//50 55//50
