# Blender v2.69 (sub 0) OBJ File: 'Cores.blend'
# www.blender.org
g Core_V_Sphere_Core_V_Sphere_Mesh
v -0.448068 0.589946 0.500000
v -0.396138 0.500000 0.500000
v -0.410052 0.448070 0.500000
v -0.448068 0.410054 0.500000
v -0.457986 0.589946 0.530524
v -0.427230 0.551930 0.552869
v -0.415973 0.500000 0.561048
v -0.427230 0.448070 0.552869
v -0.457986 0.410054 0.530524
v -0.499998 0.396139 0.500000
v -0.483951 0.589946 0.549389
v -0.472203 0.551930 0.585544
v -0.467903 0.500000 0.598777
v -0.472203 0.448070 0.585544
v -0.483951 0.410054 0.549389
v -0.516046 0.589946 0.549389
v -0.527793 0.551930 0.585544
v -0.532093 0.500000 0.598777
v -0.527793 0.448070 0.585544
v -0.516046 0.410054 0.549389
v -0.499998 0.603861 0.500000
v -0.542011 0.589946 0.530524
v -0.572766 0.551930 0.552869
v -0.584023 0.500000 0.561048
v -0.572766 0.448070 0.552869
v -0.542011 0.410054 0.530524
v -0.551929 0.589946 0.500000
v -0.589944 0.551930 0.500000
v -0.603859 0.500000 0.500000
v -0.589944 0.448070 0.500000
v -0.551929 0.410054 0.500000
v -0.542011 0.589946 0.469476
v -0.572766 0.551930 0.447131
v -0.584023 0.500000 0.438952
v -0.572766 0.448070 0.447131
v -0.542011 0.410054 0.469476
v -0.516046 0.589946 0.450611
v -0.527793 0.551930 0.414456
v -0.532093 0.500000 0.401223
v -0.527793 0.448070 0.414456
v -0.516046 0.410054 0.450611
v -0.483951 0.589946 0.450611
v -0.472203 0.551930 0.414456
v -0.467903 0.500000 0.401223
v -0.472203 0.448070 0.414456
v -0.483951 0.410054 0.450611
v -0.457986 0.589946 0.469476
v -0.427230 0.551930 0.447131
v -0.415973 0.500000 0.438952
v -0.427230 0.448070 0.447131
v -0.457986 0.410054 0.469476
v -0.410052 0.551930 0.500000
vn 0.689152 -0.689151 0.223919
vn 0.921602 -0.246943 0.299447
vn 0.425918 -0.689153 0.586227
vn 0.569582 -0.246942 0.783962
vn 0.569582 0.246942 0.783962
vn 0.425919 0.689153 0.586227
vn 0.000000 -0.689152 0.724617
vn 0.000000 -0.246943 0.969030
vn 0.000000 0.246943 0.969030
vn 0.000000 0.689152 0.724617
vn -0.425918 -0.689152 0.586228
vn -0.569581 -0.246942 0.783962
vn -0.569582 0.246943 0.783962
vn -0.425919 0.689152 0.586227
vn -0.689152 -0.689151 0.223919
vn -0.921602 -0.246943 0.299447
vn -0.921602 0.246943 0.299447
vn -0.689153 0.689151 0.223920
vn -0.689152 -0.689152 -0.223919
vn -0.921602 -0.246944 -0.299447
vn -0.921602 0.246944 -0.299447
vn -0.689152 0.689152 -0.223919
vn -0.425919 -0.689152 -0.586228
vn -0.569582 -0.246943 -0.783962
vn -0.569582 0.246943 -0.783962
vn -0.425920 0.689151 -0.586228
vn 0.000000 -0.689152 -0.724617
vn 0.000001 -0.246943 -0.969030
vn 0.000000 0.246943 -0.969030
vn 0.000000 0.689152 -0.724617
vn 0.425920 -0.689152 -0.586227
vn 0.569582 -0.246943 -0.783961
vn 0.569582 0.246942 -0.783961
vn 0.425920 0.689152 -0.586227
vn 0.257909 -0.962528 0.083799
vn 0.921602 0.246942 0.299447
vn 0.689151 0.689152 0.223919
vn 0.257909 0.962528 0.083797
vn 0.159397 -0.962528 0.219390
vn 0.159397 0.962528 0.219391
vn 0.000000 -0.962528 0.271181
vn 0.000000 0.962528 0.271181
vn -0.159397 -0.962528 0.219391
vn -0.159397 0.962528 0.219390
vn -0.257909 -0.962528 0.083799
vn -0.257909 0.962528 0.083800
vn -0.257908 -0.962528 -0.083799
vn -0.257908 0.962528 -0.083800
vn -0.159397 -0.962528 -0.219391
vn -0.159398 0.962528 -0.219391
vn 0.000000 -0.962529 -0.271181
vn 0.000000 0.962528 -0.271182
vn 0.159398 -0.962528 -0.219391
vn 0.159398 0.962528 -0.219391
vn 0.257908 -0.962528 -0.083799
vn 0.689151 -0.689152 -0.223919
vn 0.921602 -0.246943 -0.299446
vn 0.921602 0.246942 -0.299447
vn 0.689152 0.689152 -0.223919
vn 0.257908 0.962528 -0.083800
s off
f 4//1 3//1 8//1 9//1
f 3//2 2//2 7//2 8//2
f 9//3 8//3 14//3 15//3
f 8//4 7//4 13//4 14//4
f 7//5 6//5 12//5 13//5
f 6//6 5//6 11//6 12//6
f 15//7 14//7 19//7 20//7
f 14//8 13//8 18//8 19//8
f 13//9 12//9 17//9 18//9
f 12//10 11//10 16//10 17//10
f 20//11 19//11 25//11 26//11
f 19//12 18//12 24//12 25//12
f 18//13 17//13 23//13 24//13
f 17//14 16//14 22//14 23//14
f 26//15 25//15 30//15 31//15
f 25//16 24//16 29//16 30//16
f 24//17 23//17 28//17 29//17
f 23//18 22//18 27//18 28//18
f 31//19 30//19 35//19 36//19
f 30//20 29//20 34//20 35//20
f 29//21 28//21 33//21 34//21
f 28//22 27//22 32//22 33//22
f 36//23 35//23 40//23 41//23
f 35//24 34//24 39//24 40//24
f 34//25 33//25 38//25 39//25
f 33//26 32//26 37//26 38//26
f 41//27 40//27 45//27 46//27
f 40//28 39//28 44//28 45//28
f 39//29 38//29 43//29 44//29
f 38//30 37//30 42//30 43//30
f 46//31 45//31 50//31 51//31
f 45//32 44//32 49//32 50//32
f 44//33 43//33 48//33 49//33
f 43//34 42//34 47//34 48//34
f 10//35 4//35 9//35
f 2//36 52//36 6//36 7//36
f 52//37 1//37 5//37 6//37
f 1//38 21//38 5//38
f 10//39 9//39 15//39
f 5//40 21//40 11//40
f 10//41 15//41 20//41
f 11//42 21//42 16//42
f 10//43 20//43 26//43
f 16//44 21//44 22//44
f 10//45 26//45 31//45
f 22//46 21//46 27//46
f 10//47 31//47 36//47
f 27//48 21//48 32//48
f 10//49 36//49 41//49
f 32//50 21//50 37//50
f 10//51 41//51 46//51
f 37//52 21//52 42//52
f 10//53 46//53 51//53
f 42//54 21//54 47//54
f 10//55 51//55 4//55
f 51//56 50//56 3//56 4//56
f 50//57 49//57 2//57 3//57
f 49//58 48//58 52//58 2//58
f 48//59 47//59 1//59 52//59
f 47//60 21//60 1//60
