# Blender v2.69 (sub 0) OBJ File: 'Cores.blend'
# www.blender.org
mtllib Core_III_Glass.mtl
g Core_III_Glass_Cylinder.008
v -0.500001 0.417759 0.749217
v -0.500001 0.582242 0.749217
v -0.595371 0.417759 0.730247
v -0.595371 0.582242 0.730247
v -0.676223 0.417759 0.676224
v -0.676223 0.582242 0.676224
v -0.730246 0.417759 0.595372
v -0.730246 0.582242 0.595372
v -0.749217 0.417759 0.500001
v -0.749217 0.582242 0.500001
v -0.730246 0.417759 0.404631
v -0.730246 0.582242 0.404631
v -0.676223 0.417759 0.323779
v -0.676223 0.582242 0.323779
v -0.595371 0.417759 0.269756
v -0.595371 0.582242 0.269756
v -0.500001 0.417759 0.250785
v -0.500001 0.582242 0.250785
v -0.404630 0.417759 0.269756
v -0.404630 0.582242 0.269756
v -0.323778 0.417759 0.323779
v -0.323778 0.582242 0.323779
v -0.269755 0.417759 0.404631
v -0.269755 0.582242 0.404631
v -0.250785 0.417759 0.500001
v -0.250785 0.582242 0.500001
v -0.269755 0.417759 0.595372
v -0.269755 0.582242 0.595372
v -0.323778 0.417759 0.676224
v -0.323778 0.582242 0.676224
v -0.404630 0.417759 0.730247
v -0.404630 0.582242 0.730247
vt 1.000000 0.458879
vt 1.000000 0.541121
vt 0.937500 0.541121
vt 0.937500 0.458879
vt 0.875000 0.541121
vt 0.875000 0.458879
vt 0.812500 0.541121
vt 0.812500 0.458879
vt 0.750000 0.541121
vt 0.750000 0.458879
vt 0.687500 0.541121
vt 0.687500 0.458879
vt 0.625000 0.541121
vt 0.625000 0.458879
vt 0.562500 0.541121
vt 0.562500 0.458879
vt 0.500000 0.541121
vt 0.500000 0.458879
vt 0.437500 0.541121
vt 0.437500 0.458879
vt 0.375000 0.541121
vt 0.375000 0.458879
vt 0.312500 0.541121
vt 0.312500 0.458879
vt 0.250000 0.541121
vt 0.250000 0.458879
vt 0.187500 0.541121
vt 0.187500 0.458879
vt 0.125000 0.541121
vt 0.125000 0.458879
vt 0.062500 0.458879
vt 0.062500 0.541121
vt 0.000000 0.541121
vt 0.000000 0.458879
vn -0.195091 0.000000 0.980785
vn -0.555570 0.000000 0.831470
vn -0.831470 0.000000 0.555570
vn -0.980785 0.000000 0.195091
vn -0.980785 0.000000 -0.195091
vn -0.831470 0.000000 -0.555570
vn -0.555570 0.000000 -0.831470
vn -0.195090 0.000000 -0.980785
vn 0.195090 0.000000 -0.980785
vn 0.555570 0.000000 -0.831470
vn 0.831470 0.000000 -0.555570
vn 0.980785 0.000000 -0.195090
vn 0.980785 0.000000 0.195091
vn 0.831470 0.000000 0.555570
vn 0.195090 0.000000 0.980785
vn 0.555570 0.000000 0.831470
usemtl None
s off
f 1/1/1 2/2/1 4/3/1 3/4/1
f 3/4/2 4/3/2 6/5/2 5/6/2
f 5/6/3 6/5/3 8/7/3 7/8/3
f 7/8/4 8/7/4 10/9/4 9/10/4
f 9/10/5 10/9/5 12/11/5 11/12/5
f 11/12/6 12/11/6 14/13/6 13/14/6
f 13/14/7 14/13/7 16/15/7 15/16/7
f 15/16/8 16/15/8 18/17/8 17/18/8
f 17/18/9 18/17/9 20/19/9 19/20/9
f 19/20/10 20/19/10 22/21/10 21/22/10
f 21/22/11 22/21/11 24/23/11 23/24/11
f 23/24/12 24/23/12 26/25/12 25/26/12
f 25/26/13 26/25/13 28/27/13 27/28/13
f 27/28/14 28/27/14 30/29/14 29/30/14
f 31/31/15 32/32/15 2/33/15 1/34/15
f 29/30/16 30/29/16 32/32/16 31/31/16
