# Blender v2.69 (sub 0) OBJ File: 'Cores.blend'
# www.blender.org
mtllib Core_Glass_V.mtl
g Core_V_Glass_Core_V_Glass_Mesh
v -0.499998 0.242927 0.726284
v -0.499998 0.757072 0.726284
v -0.586889 0.242927 0.709059
v -0.586889 0.757072 0.709059
v -0.660551 0.242927 0.660007
v -0.660551 0.757072 0.660007
v -0.709771 0.242927 0.586595
v -0.709771 0.757072 0.586595
v -0.727055 0.242927 0.499999
v -0.727055 0.757072 0.499999
v -0.709771 0.242927 0.413404
v -0.709771 0.757072 0.413404
v -0.660551 0.242927 0.339992
v -0.660551 0.757072 0.339992
v -0.586889 0.242927 0.290940
v -0.586889 0.757072 0.290940
v -0.499998 0.242927 0.273715
v -0.499998 0.757072 0.273715
v -0.413107 0.242927 0.290940
v -0.413107 0.757072 0.290940
v -0.339445 0.242927 0.339992
v -0.339445 0.757072 0.339992
v -0.290225 0.242927 0.413404
v -0.290225 0.757072 0.413404
v -0.272942 0.242927 0.499999
v -0.272942 0.757072 0.499999
v -0.290225 0.242927 0.586595
v -0.290225 0.757072 0.586595
v -0.339445 0.242927 0.660007
v -0.339445 0.757072 0.660007
v -0.413108 0.242927 0.709059
v -0.413108 0.757072 0.709059
vt 0.500001 0.000061
vt 0.500001 0.367100
vt 0.437509 0.367100
vt 0.437508 0.000061
vt 0.375016 0.367100
vt 0.375016 0.000061
vt 0.312524 0.367101
vt 0.312523 0.000061
vt 0.250032 0.367101
vt 0.250031 0.000061
vt 0.187539 0.367101
vt 0.187538 0.000062
vt 0.125047 0.367101
vt 0.125046 0.000062
vt 0.062555 0.367102
vt 0.062553 0.000062
vt 0.000062 0.367102
vt 0.000061 0.000062
vt 0.999939 0.000061
vt 0.999939 0.367099
vt 0.937447 0.367099
vt 0.937447 0.000061
vt 0.874955 0.367099
vt 0.874955 0.000061
vt 0.812462 0.367099
vt 0.812462 0.000061
vt 0.749970 0.367099
vt 0.749970 0.000061
vt 0.687478 0.367099
vt 0.687478 0.000061
vt 0.624986 0.367099
vt 0.624985 0.000061
vt 0.562493 0.000061
vt 0.562493 0.367100
vn -0.194452 0.000000 0.980912
vn -0.554262 0.000000 0.832342
vn -0.830594 0.000000 0.556879
vn -0.980658 0.000000 0.195731
vn -0.980658 0.000000 -0.195731
vn -0.830594 0.000000 -0.556879
vn -0.554262 0.000000 -0.832342
vn -0.194452 0.000000 -0.980912
vn 0.194452 0.000000 -0.980912
vn 0.554262 0.000000 -0.832342
vn 0.830594 0.000000 -0.556879
vn 0.980658 0.000000 -0.195731
vn 0.980658 0.000000 0.195731
vn 0.830593 0.000000 0.556879
vn 0.194451 0.000000 0.980912
vn 0.554262 0.000000 0.832342
usemtl None
s off
f 1/1/1 2/2/1 4/3/1 3/4/1
f 3/4/2 4/3/2 6/5/2 5/6/2
f 5/6/3 6/5/3 8/7/3 7/8/3
f 7/8/4 8/7/4 10/9/4 9/10/4
f 9/10/5 10/9/5 12/11/5 11/12/5
f 11/12/6 12/11/6 14/13/6 13/14/6
f 13/14/7 14/13/7 16/15/7 15/16/7
f 15/16/8 16/15/8 18/17/8 17/18/8
f 17/19/9 18/20/9 20/21/9 19/22/9
f 19/22/10 20/21/10 22/23/10 21/24/10
f 21/24/11 22/23/11 24/25/11 23/26/11
f 23/26/12 24/25/12 26/27/12 25/28/12
f 25/28/13 26/27/13 28/29/13 27/30/13
f 27/30/14 28/29/14 30/31/14 29/32/14
f 31/33/15 32/34/15 2/2/15 1/1/15
f 29/32/16 30/31/16 32/34/16 31/33/16
