# Blender v2.69 (sub 0) OBJ File: 'Boss_Switchblade.blend'
# www.blender.org
g Switchblade_Shield_Switchblade_Shield_Mesh
v 9.800000 -9.702194 13.091991
v 9.800000 -9.702194 13.891991
v -9.800000 -9.702194 13.891991
v -9.800000 -9.702194 13.091991
v 9.800000 19.932510 13.091991
v 9.800000 19.932510 13.891991
v -9.800000 19.932510 13.891991
v -9.800000 19.932510 13.091991
vn 1.000000 0.000000 0.000000
vn 0.000000 0.000000 1.000000
vn -1.000000 0.000000 0.000000
vn 0.000000 0.000000 -1.000000
vn 0.000000 -1.000000 0.000000
vn 0.000000 1.000000 0.000000
s off
f 5//1 6//1 2//1 1//1
f 6//2 7//2 3//2 2//2
f 7//3 8//3 4//3 3//3
f 8//4 5//4 1//4 4//4
f 1//5 2//5 3//5 4//5
f 8//6 7//6 6//6 5//6
g Switchblade_HitBox_Switchblade_HitBox_Mesh
v 17.966581 -8.385380 -12.000000
v 0.376361 0.529859 12.000000
v -0.376361 0.529859 12.000000
v -17.966581 -8.385380 -12.000000
v 17.966581 6.544503 -12.000000
v 0.376361 6.009840 12.000000
v -0.376361 6.009840 12.000000
v -17.966581 6.544503 -12.000000
v 20.164484 11.053041 -7.431864
v 20.164484 -11.037461 -7.431864
v -20.164484 11.053041 -7.431864
v -20.164484 -11.037461 -7.431864
vn 0.700655 0.000000 0.713500
vn 0.000000 0.000000 1.000000
vn -0.901123 0.000000 -0.433564
vn 0.000000 0.000000 -1.000000
vn 0.000000 -0.859279 0.511508
vn 0.000000 0.967933 0.251210
vn 0.901123 0.000000 -0.433564
vn -0.700655 0.000000 0.713500
vn 0.000000 -0.864820 -0.502081
vn 0.000000 0.711734 -0.702449
s off
f 17//7 14//7 10//7 18//7
f 14//8 15//8 11//8 10//8
f 19//9 16//9 12//9 20//9
f 16//10 13//10 9//10 12//10
f 18//11 10//11 11//11 20//11
f 19//12 15//12 14//12 17//12
f 13//13 17//13 18//13 9//13
f 15//14 19//14 20//14 11//14
f 9//15 18//15 20//15 12//15
f 16//16 19//16 17//16 13//16
g Switchblade_Body_Switchblade_Body_Mesh
v -4.585309 9.898998 -6.745697
v 4.585308 9.898998 -6.745697
v -4.585309 7.671417 2.543677
v 4.585308 7.671417 2.543677
v 19.776871 -9.578748 -7.812422
v 0.174609 1.873370 11.517141
v -0.190078 1.873370 11.517141
v -19.792343 -9.578748 -7.812422
v 19.776871 9.750813 -7.812422
v 0.174609 5.236911 11.517141
v -0.190078 5.236911 11.517141
v -19.792343 9.750813 -7.812422
v -0.022947 5.308340 10.934911
v -0.022947 7.100385 9.396194
v -2.510401 6.287678 6.739301
v 2.464508 6.287678 6.739301
v -6.173285 -7.119917 -11.520641
v -4.408752 -7.119917 -7.805835
v -9.237999 -7.119917 -7.805835
v -7.473466 -7.119917 -11.520641
v -6.173285 7.367822 -11.520640
v -4.408752 7.367822 -7.805835
v -9.237999 7.367822 -7.805835
v -7.473466 7.367822 -11.520640
v 7.473464 -7.119917 -11.520641
v 9.237999 -7.119917 -7.805835
v 4.408751 -7.119917 -7.805835
v 6.173283 -7.119917 -11.520641
v 7.473464 7.367822 -11.520640
v 9.237999 7.367822 -7.805835
v 4.408751 7.367822 -7.805835
v 6.173283 7.367822 -11.520640
v -15.920962 -7.119917 -11.520641
v -14.156429 -7.119917 -7.805835
v -18.985676 -7.119917 -7.805835
v -17.221144 -7.119917 -11.520641
v -15.920962 7.367822 -11.520640
v -14.156429 7.367822 -7.805835
v -18.985676 7.367822 -7.805835
v -17.221144 7.367822 -11.520640
v 17.221140 -7.119917 -11.520641
v 18.985678 -7.119917 -7.805835
v 14.156429 -7.119917 -7.805835
v 15.920961 -7.119917 -11.520641
v 17.221140 7.367822 -11.520640
v 18.985678 7.367822 -7.805835
v 14.156429 7.367822 -7.805835
v 15.920961 7.367822 -11.520640
v 0.650090 -7.119917 -11.520641
v 2.414624 -7.119917 -7.805835
v -2.414624 -7.119917 -7.805835
v -0.650090 -7.119917 -11.520641
v 0.650090 7.367822 -11.520640
v 2.414624 7.367822 -7.805835
v -2.414624 7.367822 -7.805835
v -0.650090 7.367822 -11.520640
vn 0.000000 0.972432 0.233188
vn 0.702137 0.000000 0.712042
vn 0.000000 0.000000 1.000000
vn -0.702137 0.000000 0.712042
vn 0.000000 0.000000 -1.000000
vn 0.000000 -0.860339 0.509722
vn 0.000000 0.973800 0.227405
vn -0.715174 0.455325 0.530288
vn 0.715174 0.455325 0.530288
vn 0.000000 0.956263 -0.292508
vn 0.903278 0.000000 -0.429057
vn -0.903277 0.000000 -0.429057
vn 0.000000 -1.000000 -0.000000
vn 0.000000 1.000000 -0.000000
vn 0.903277 0.000000 -0.429057
vn -0.903278 0.000000 -0.429056
vn -0.903278 0.000000 -0.429057
vn 0.903277 0.000000 -0.429058
s off
f 22//17 21//17 23//17 24//17
f 29//18 30//18 26//18 25//18
f 30//19 31//19 27//19 26//19
f 31//20 32//20 28//20 27//20
f 32//21 29//21 25//21 28//21
f 25//22 26//22 27//22 28//22
f 32//23 31//23 30//23 29//23
f 33//24 34//24 35//24
f 36//25 34//25 33//25
f 35//26 34//26 36//26
f 41//27 42//27 38//27 37//27
f 43//28 44//28 40//28 39//28
f 44//21 41//21 37//21 40//21
f 37//29 38//29 39//29 40//29
f 44//30 43//30 42//30 41//30
f 49//31 50//31 46//31 45//31
f 51//32 52//32 48//32 47//32
f 52//21 49//21 45//21 48//21
f 45//29 46//29 47//29 48//29
f 52//30 51//30 50//30 49//30
f 57//27 58//27 54//27 53//27
f 59//33 60//33 56//33 55//33
f 60//21 57//21 53//21 56//21
f 53//29 54//29 55//29 56//29
f 60//30 59//30 58//30 57//30
f 65//34 66//34 62//34 61//34
f 67//33 68//33 64//33 63//33
f 68//21 65//21 61//21 64//21
f 61//29 62//29 63//29 64//29
f 68//30 67//30 66//30 65//30
f 73//27 74//27 70//27 69//27
f 75//28 76//28 72//28 71//28
f 76//21 73//21 69//21 72//21
f 69//29 70//29 71//29 72//29
f 76//30 75//30 74//30 73//30
g Switchblade_Door_R_Switchblade_Door_R_Mesh
v -4.585309 10.331873 -6.745697
v -0.000000 10.331873 -6.745697
v -4.585309 8.104292 2.543676
v -0.000000 8.104292 2.543676
vn 0.000000 0.972432 0.233188
s off
f 78//35 77//35 79//35 80//35
g Switchblade_Door_L_Switchblade_Door_L_Mesh
v 0.000001 10.331873 -6.745697
v 4.585310 10.331873 -6.745697
v 0.000001 8.104292 2.543676
v 4.585310 8.104292 2.543676
vn 0.000000 0.972432 0.233188
s off
f 82//36 81//36 83//36 84//36
g Switchblade_Emitter_Switchblade_Emitter_Mesh
v -5.434555 13.669353 -5.972085
v 0.000000 13.669352 3.440840
v 5.434557 13.669353 -5.972085
v 0.000001 7.697363 -1.278066
v 0.000001 19.641342 -1.278066
vn -0.805442 -0.367448 0.465022
vn 0.805442 -0.367448 0.465022
vn 0.000000 -0.617963 -0.786207
vn 0.805442 0.367448 0.465022
vn 0.000000 0.617963 -0.786207
vn -0.805442 0.367448 0.465022
s off
f 88//37 86//37 85//37
f 88//38 87//38 86//38
f 88//39 85//39 87//39
f 89//40 86//40 87//40
f 89//41 87//41 85//41
f 89//42 85//42 86//42
g Switchblade_Laser_Death_Switchblade_Laser_Death_Mesh
v 3.394357 9.862542 -7.503651
v 4.186181 9.540018 -4.050546
v -4.186179 9.540018 -4.050546
v -3.394355 9.862542 -7.503651
v 3.394357 15.729329 -7.503651
v 4.186181 16.051853 -4.050546
v -4.186179 16.051853 -4.050546
v -3.394355 15.729329 -7.503651
v 3.050001 10.633789 4.077671
v -3.049999 10.633789 4.077671
v 3.050001 14.958082 4.077671
v -3.049999 14.958082 4.077671
v 0.000001 16.876902 -4.050546
v -3.556927 12.795936 4.075912
v 0.000001 8.714970 -4.050546
v -4.881948 12.795936 -4.138907
v 0.000001 16.480131 -8.587479
v 3.556929 12.795936 4.075912
v 0.000001 9.111740 -8.587479
v -3.958518 12.795936 -8.165939
v 0.000001 15.937755 4.077671
v 3.958520 12.795936 -8.165939
v 0.000001 9.654117 4.077671
v 4.881949 12.795936 -4.138907
v 0.000001 12.795936 4.077671
v 0.000001 12.795936 -10.703179
vn 0.948568 -0.220630 -0.227027
vn -0.000220 -0.000311 1.000000
vn -0.948568 -0.220630 -0.227027
vn 0.439673 0.379257 -0.814157
vn 0.964317 -0.211407 0.159371
vn -0.964317 0.211407 0.159371
vn -0.964317 -0.211407 0.159371
vn 0.964317 0.211407 0.159371
vn -0.239710 -0.961137 0.136947
vn 0.000220 0.000311 1.000000
vn 0.217215 -0.970035 -0.108853
vn -0.439673 -0.379257 -0.814157
vn 0.239710 -0.961137 0.136947
vn -0.439673 0.379257 -0.814157
vn 0.000220 -0.000311 1.000000
vn 0.217215 0.970035 -0.108853
vn -0.239710 0.961137 0.136947
vn -0.000220 0.000311 1.000000
vn 0.239710 0.961137 0.136947
vn 0.439673 -0.379257 -0.814157
vn -0.948568 0.220630 -0.227027
vn -0.217215 0.970035 -0.108853
vn -0.217215 -0.970035 -0.108853
vn 0.948568 0.220630 -0.227027
s off
f 111//43 113//43 91//43 90//43
f 110//44 101//44 103//44 114//44
f 105//45 109//45 93//45 92//45
f 106//46 94//46 111//46 115//46
f 91//47 113//47 107//47 98//47
f 96//48 105//48 103//48 101//48
f 105//49 92//49 99//49 103//49
f 113//50 95//50 100//50 107//50
f 92//51 104//51 112//51 99//51
f 107//52 114//52 112//52 98//52
f 90//53 91//53 104//53 108//53
f 109//54 115//54 108//54 93//54
f 104//55 91//55 98//55 112//55
f 97//56 106//56 115//56 109//56
f 100//57 110//57 114//57 107//57
f 106//58 102//58 95//58 94//58
f 102//59 96//59 101//59 110//59
f 114//60 103//60 99//60 112//60
f 95//61 102//61 110//61 100//61
f 115//62 111//62 90//62 108//62
f 96//63 97//63 109//63 105//63
f 97//64 96//64 102//64 106//64
f 108//65 104//65 92//65 93//65
f 94//66 95//66 113//66 111//66
g Switchblade_Missiles_Switchblade_Missiles_Mesh
v -19.457911 -4.048515 -0.648116
v -13.256842 -4.367777 2.267293
v -25.733870 -4.367777 2.267292
v -19.532801 -4.048515 -0.648116
v -19.457911 4.296422 -0.648116
v -13.256842 4.615684 2.267293
v -25.733870 4.615684 2.267292
v -19.532801 4.296422 -0.648116
v -13.256842 -4.367777 4.063985
v -25.733870 -4.367777 4.063985
v -13.256842 4.615684 4.063985
v -25.733870 4.615684 4.063985
vn 0.425469 0.000000 -0.904973
vn -0.425469 0.000000 -0.904973
vn 0.000000 0.000000 -1.000000
vn 0.000000 -0.994057 -0.108858
vn 0.000000 0.994057 -0.108858
vn -1.000000 0.000000 0.000000
vn 0.000000 0.000000 1.000000
vn 0.000000 1.000000 0.000000
vn 0.000000 -1.000000 0.000000
vn 1.000000 0.000000 0.000000
s off
f 120//67 121//67 117//67 116//67
f 122//68 123//68 119//68 118//68
f 123//69 120//69 116//69 119//69
f 116//70 117//70 118//70 119//70
f 123//71 122//71 121//71 120//71
f 127//72 122//72 118//72 125//72
f 126//73 127//73 125//73 124//73
f 122//74 127//74 126//74 121//74
f 117//75 124//75 125//75 118//75
f 121//76 126//76 124//76 117//76
g Switchblade_Laser_Switchblade_Laser_Mesh
v 23.004522 -2.744015 -1.711103
v 20.477924 -0.858613 8.816390
v 18.512791 -0.858613 8.816390
v 15.986193 -2.744015 -1.711103
v 23.004522 2.991921 -1.711103
v 20.477924 1.106519 8.816390
v 18.512791 1.106519 8.816390
v 15.986193 2.991921 -1.711103
v 19.495358 1.106519 8.816390
v 19.495358 -0.858613 8.816390
v 19.495358 3.633118 -5.220267
v 19.495358 -3.385211 -5.220267
vn 0.972387 0.000000 0.233373
vn 0.000000 0.000000 1.000000
vn -0.972387 0.000000 0.233373
vn 0.707107 0.000000 -0.707107
vn -0.002213 -0.984208 0.177003
vn 0.002213 0.984208 0.177003
vn -0.707107 0.000000 -0.707107
vn 0.002213 -0.984208 0.177003
vn -0.002213 0.984208 0.177003
s off
f 132//77 133//77 129//77 128//77
f 136//78 134//78 130//78 137//78
f 134//79 135//79 131//79 130//79
f 138//80 132//80 128//80 139//80
f 139//81 137//81 130//81 131//81
f 138//82 136//82 133//82 132//82
f 133//78 136//78 137//78 129//78
f 135//83 138//83 139//83 131//83
f 128//84 129//84 137//84 139//84
f 135//85 134//85 136//85 138//85
