# Blender v2.69 (sub 0) OBJ File: '3_Switchblade_Export.blend'
# www.blender.org
mtllib Switchblade_Missiles.mtl
g Switchblade_Missiles_Switchblade_Missiles_Mesh
v 0.037445 -4.172466 -3.100305
v 6.238514 -4.491728 -0.184896
v -6.238515 -4.491729 -0.184896
v -0.037445 -4.172466 -3.100305
v 0.037445 4.172472 -3.100305
v 6.238514 4.491733 -0.184895
v -6.238515 4.491733 -0.184896
v -0.037445 4.172472 -3.100305
v 6.238514 -4.491729 1.611797
v -6.238515 -4.491729 1.611797
v 6.238514 4.491733 1.611797
v -6.238515 4.491733 1.611797
vt 0.629140 0.719488
vt 0.378099 0.681693
vt 0.762493 0.938463
vt 0.631447 0.721030
vt 0.725518 0.993815
vt 0.341124 0.737045
vn 0.425470 0.000000 -0.904973
vn -0.425470 0.000000 -0.904973
vn 0.000000 0.000000 -1.000000
vn 0.000000 -0.994057 -0.108858
vn -0.000000 0.994057 -0.108857
vn -1.000000 0.000000 0.000000
vn 0.000000 0.000000 1.000000
vn -0.000000 1.000000 0.000000
vn 0.000000 -1.000000 0.000000
vn 1.000000 0.000000 0.000000
usemtl Boss_Switchblade_MAT
s off
f 5/1/1 6/2/1 2/2/1 1/1/1
f 7/3/2 8/4/2 4/4/2 3/3/2
f 8/4/3 5/1/3 1/1/3 4/4/3
f 1/1/4 2/2/4 3/3/4 4/4/4
f 8/4/5 7/3/5 6/2/5 5/1/5
f 12/5/6 7/3/6 3/3/6 10/5/6
f 11/6/7 12/5/7 10/5/7 9/6/7
f 7/3/8 12/5/8 11/6/8 6/2/8
f 2/2/9 9/6/9 10/5/9 3/3/9
f 6/2/10 11/6/10 9/6/10 2/2/10
