# Blender v2.69 (sub 0) OBJ File: '3_Switchblade_Export.blend'
# www.blender.org
mtllib Switchblade_Emitter.mtl
g Switchblade_Emitter_Switchblade_Emitter_Mesh
v -5.434556 0.000002 -3.273758
v 0.000000 0.000001 6.139167
v 5.434556 0.000002 -3.273757
v 0.000001 -5.971988 1.420260
v 0.000001 5.971991 1.420262
vt 0.892591 0.614836
vt 0.974806 0.769486
vt 0.988915 0.366317
vt 0.632705 0.555684
vn -0.805442 -0.367448 0.465022
vn 0.805442 -0.367448 0.465022
vn 0.000000 -0.617963 -0.786207
vn 0.805442 0.367448 0.465022
vn 0.000000 0.617963 -0.786207
vn -0.805442 0.367448 0.465022
usemtl Boss_Switchblade_MAT
s off
f 4/1/1 2/2/1 1/3/1
f 4/1/2 3/4/2 2/2/2
f 4/1/3 1/3/3 3/4/3
f 5/1/4 2/2/4 3/4/4
f 5/1/5 3/4/5 1/3/5
f 5/1/6 1/3/6 2/2/6
